<?xml version="1.0" encoding="UTF-8"?>
<svg id="Capa_1" data-name="Capa 1" xmlns="http://www.w3.org/2000/svg" viewBox="0 0 150 150">
  <defs>
    <style>
      .cls-1 {
        fill: #002f87;
      }
    </style>
  </defs>
  <g id="_08-Coupon" data-name=" 08-Coupon">
    <path class="cls-1" d="M115.62,96.13h-4.28c-12.86,0-16.73-8.33-17.08-13.34l-1.54-1.27c-5.55-4.58-5.55-12,0-16.58.83-.69,2.19-.69,3.02,0l14.34,11.81h5.53v3.52h-6.41c-.57,0-1.11-.19-1.51-.52l-13.29-10.95c-2.51,3.24-1.95,7.49,1.35,10.21l2.14,1.76c.4.33.63.78.63,1.25,0,1.08.43,10.57,12.83,10.57h4.28v3.52Z"/>
    <path class="cls-1" d="M109.21,119.03c-.57,0-1.11-.19-1.51-.52l-10.69-8.8c-.4-.33-.63-.78-.63-1.24v-7.04h4.28v6.31l8.55,7.04,18.36-15.12-2.76-2.28c-.35-.29-.57-.66-.63-1.07l-4.16-36.1-9.76-4.83,2.2-3.02,10.69,5.28c.58.29.96.79,1.03,1.34l4.2,36.35,3.73,3.07c.83.69.83,1.8,0,2.49l-21.38,17.61c-.4.33-.95.51-1.51.51h0Z"/>
    <path class="cls-1" d="M115.62,127.83c-.57,0-1.11-.19-1.51-.52l-8.55-7.04c-.83-.69-.83-1.8,0-2.49l2.14-1.76,3.02,2.49-.63.52,5.53,4.55,22.63-18.64-5.53-4.55-.63.52-3.02-2.49,2.14-1.76c.83-.69,2.19-.69,3.02,0l8.55,7.04c.83.69.83,1.8,0,2.49l-25.66,21.13c-.4.33-.94.52-1.51.52Z"/>
    <path class="cls-1" d="M141.28,127.83h-25.66v-3.52h23.52v-19.37h4.28v21.13c0,.97-.96,1.76-2.14,1.76Z"/>
    <path class="cls-1" d="M111.35,103.18H8.72c-1.18,0-2.14-.79-2.14-1.76v-49.31c0-.97.96-1.76,2.14-1.76h102.63c1.18,0,2.14.79,2.14,1.76v26.41h-4.28v-24.65H10.86v45.78h98.35v-5.28h4.28v7.04c0,.97-.96,1.76-2.14,1.76Z"/>
    <path class="cls-1" d="M98.52,96.13H21.55c-1.18,0-2.14-.79-2.14-1.76s-.96-1.76-2.14-1.76-2.14-.79-2.14-1.76v-28.17c0-.97.96-1.76,2.14-1.76s2.14-.79,2.14-1.76.96-1.76,2.14-1.76h76.97c1.18,0,2.14.79,2.14,1.76s.96,1.76,2.14,1.76,2.14.79,2.14,1.76v10.57h-4.28v-9.11c-1.82-.54-3.26-1.72-3.91-3.22H23.32c-.65,1.5-2.09,2.68-3.91,3.22v25.26c1.82.54,3.26,1.72,3.91,3.22h73.42c.55-1.29,1.7-2.36,3.19-2.97l1.91,3.15c-.73.3-1.19.91-1.19,1.58,0,.97-.96,1.76-2.14,1.76h0Z"/>
    <path class="cls-1" d="M40.79,52.11h4.28v7.04h-4.28v-7.04Z"/>
    <path class="cls-1" d="M40.79,59.15h4.28v3.52h-4.28v-3.52Z"/>
    <path class="cls-1" d="M40.79,64.44h4.28v3.52h-4.28v-3.52Z"/>
    <path class="cls-1" d="M40.79,69.72h4.28v3.52h-4.28v-3.52Z"/>
    <path class="cls-1" d="M40.79,75h4.28v3.52h-4.28v-3.52Z"/>
    <path class="cls-1" d="M40.79,80.29h4.28v3.52h-4.28v-3.52Z"/>
    <path class="cls-1" d="M40.79,85.57h4.28v3.52h-4.28v-3.52Z"/>
    <path class="cls-1" d="M40.79,90.85h4.28v3.52h-4.28v-3.52Z"/>
    <path class="cls-1" d="M40.79,94.37h4.28v7.04h-4.28v-7.04Z"/>
    <path class="cls-1" d="M85.69,75h-34.21c-1.18,0-2.14-.79-2.14-1.76v-7.04c0-.97.96-1.76,2.14-1.76h36.35v3.52h-34.21v3.52h32.07v3.52Z"/>
    <path class="cls-1" d="M49.34,78.53h4.28v3.52h-4.28v-3.52Z"/>
    <path class="cls-1" d="M57.9,78.53h29.93v3.52h-29.93v-3.52Z"/>
    <path class="cls-1" d="M49.34,85.57h38.48v3.52h-38.48v-3.52Z"/>
    <path class="cls-1" d="M90.35,53.75l-58.75-18.75-8.75,17.76-3.96-1.32,9.54-19.37c.44-.89,1.66-1.33,2.75-.98l60.72,19.37-1.54,3.29Z"/>
    <path class="cls-1" d="M103.18,53.45l-38.58-27.03-13.73,13.45-3.27-2.27,15.11-14.81c.37-.36.89-.59,1.46-.63.57-.04,1.13.11,1.56.41l40.22,28.17-2.77,2.69Z"/>
  </g>
</svg>