<?xml version="1.0" encoding="UTF-8"?>
<svg id="Capa_1" data-name="Capa 1" xmlns="http://www.w3.org/2000/svg" xmlns:xlink="http://www.w3.org/1999/xlink" viewBox="0 0 150 150">
  <defs>
    <style>
      .cls-1 {
        fill: none;
      }

      .cls-2 {
        clip-path: url(#clippath);
      }

      .cls-3 {
        fill: #002f87;
      }
    </style>
    <clipPath id="clippath">
      <rect class="cls-1" x="8.68" y="8.68" width="132.64" height="132.64"/>
    </clipPath>
  </defs>
  <g id="g1788">
    <g id="g1790">
      <g id="path1792">
        <rect class="cls-3" x="56.57" y="39.28" width="36.85" height="4.76"/>
      </g>
    </g>
    <g id="g1794">
      <g class="cls-2">
        <g id="g1796">
          <g id="g1802">
            <g id="path1804">
              <path class="cls-3" d="M101.64,70.33h-53.27c-2.62,0-4.76-2.13-4.76-4.76v-5.06c0-2.62,2.14-4.76,4.76-4.76h53.27c2.62,0,4.76,2.13,4.76,4.76v5.06c0,2.62-2.14,4.76-4.76,4.76ZM48.36,60.52v5.05h53.27v-5.06h-53.27Z"/>
            </g>
          </g>
          <g id="g1806">
            <g id="path1808">
              <path class="cls-3" d="M101.64,92.32h-53.27c-2.62,0-4.76-2.13-4.76-4.76v-5.05c0-2.62,2.14-4.76,4.76-4.76h53.27c2.62,0,4.76,2.13,4.76,4.76v5.05c0,2.62-2.14,4.76-4.76,4.76ZM48.36,82.51v5.05h53.27v-5.05h-53.27Z"/>
            </g>
          </g>
          <g id="g1810">
            <g id="path1812">
              <path class="cls-3" d="M79.52,115.6h-9.04c-3.92,0-7.1-3.18-7.1-7.1v-.26c0-3.92,3.18-7.1,7.1-7.1h9.04c3.92,0,7.1,3.18,7.1,7.1v.26c0,3.92-3.18,7.1-7.1,7.1ZM70.48,105.9c-1.29,0-2.34,1.05-2.34,2.34v.26c0,1.29,1.05,2.34,2.34,2.34h9.04c1.29,0,2.34-1.05,2.34-2.34v-.26c0-1.29-1.05-2.34-2.34-2.34h-9.04Z"/>
            </g>
          </g>
          <g id="g1814">
            <g id="path1816">
              <path class="cls-3" d="M123.69,32.64H26.31v-16.46c0-4.38,3.56-7.94,7.94-7.94h81.5c4.38,0,7.94,3.56,7.94,7.94v16.46ZM31.07,27.88h87.86v-11.7c0-1.75-1.43-3.18-3.18-3.18H34.25c-1.75,0-3.18,1.43-3.18,3.18v11.7Z"/>
            </g>
          </g>
          <g id="g1818">
            <g id="path1820">
              <path class="cls-3" d="M84.24,132.03h-49.99c-4.38,0-7.94-3.56-7.94-7.94V45.54h4.76v78.54c0,1.75,1.43,3.18,3.18,3.18h49.99v4.76Z"/>
            </g>
          </g>
          <g id="g1822">
            <g id="path1824">
              <path class="cls-3" d="M118.84,131.4l-1.85-4.38c1.18-.5,1.94-1.65,1.94-2.93V16.18c0-1.75-1.43-3.18-3.18-3.18H34.25c-1.75,0-3.18,1.43-3.18,3.18v21.59h-4.76v-21.59c0-4.38,3.56-7.94,7.94-7.94h81.5c4.38,0,7.94,3.56,7.94,7.94v107.91c0,3.2-1.9,6.07-4.85,7.31Z"/>
            </g>
          </g>
          <g id="g1826">
            <g id="path1828">
              <path class="cls-3" d="M41.02,26.82c-3.52,0-6.38-2.86-6.38-6.38s2.86-6.38,6.38-6.38,6.38,2.86,6.38,6.38-2.86,6.38-6.38,6.38ZM41.02,18.82c-.89,0-1.62.73-1.62,1.62s.73,1.62,1.62,1.62,1.62-.73,1.62-1.62-.73-1.62-1.62-1.62Z"/>
            </g>
          </g>
          <g id="g1830">
            <g id="path1832">
              <path class="cls-3" d="M56.57,26.82c-3.52,0-6.38-2.86-6.38-6.38s2.86-6.38,6.38-6.38,6.38,2.86,6.38,6.38-2.86,6.38-6.38,6.38ZM56.57,18.82c-.89,0-1.62.73-1.62,1.62s.73,1.62,1.62,1.62,1.62-.73,1.62-1.62-.73-1.62-1.62-1.62Z"/>
            </g>
          </g>
          <g id="g1834">
            <g id="path1836">
              <path class="cls-3" d="M72.12,26.82c-3.52,0-6.38-2.86-6.38-6.38s2.86-6.38,6.38-6.38,6.38,2.86,6.38,6.38-2.86,6.38-6.38,6.38ZM72.12,18.82c-.89,0-1.62.73-1.62,1.62s.73,1.62,1.62,1.62,1.62-.73,1.62-1.62-.73-1.62-1.62-1.62Z"/>
            </g>
          </g>
          <g id="g1838">
            <g id="path1840">
              <path class="cls-3" d="M106.83,141.76c-1.35,0-2.67-.7-3.39-1.96l-3.54-6.14-4.51,2.61c-1.16.67-2.59.67-3.75,0-1.16-.67-1.88-1.91-1.88-3.25v-23.28c0-1.33.72-2.58,1.88-3.25,1.16-.67,2.59-.67,3.75,0l20.16,11.64c1.16.67,1.88,1.91,1.88,3.25s-.72,2.58-1.88,3.25l-4.51,2.61,3.54,6.14c1.08,1.87.43,4.27-1.43,5.35l-4.35,2.51c-.62.35-1.29.52-1.95.52ZM100.17,128.61c.35,0,.69.05,1.04.14,1.03.28,1.88.93,2.41,1.85l3.51,6.08,2.88-1.66-3.51-6.08c-.53-.92-.67-1.99-.4-3.02.28-1.03.93-1.88,1.85-2.41l3.68-2.12-17.13-9.89v19.78l3.68-2.13c.61-.35,1.29-.53,1.98-.53ZM113.15,122.25s0,0,0,0h0Z"/>
            </g>
          </g>
        </g>
      </g>
    </g>
  </g>
</svg>