<?xml version="1.0" encoding="UTF-8"?>
<svg id="Capa_1" data-name="Capa 1" xmlns="http://www.w3.org/2000/svg" xmlns:xlink="http://www.w3.org/1999/xlink" viewBox="0 0 150 150">
  <defs>
    <style>
      .cls-1 {
        fill: none;
      }

      .cls-2 {
        clip-path: url(#clippath-1);
      }

      .cls-3 {
        clip-path: url(#clippath);
      }

      .cls-4 {
        fill: #002f87;
      }
    </style>
    <clipPath id="clippath">
      <rect class="cls-1" x="18.25" y="55.76" width="113.51" height="78.64"/>
    </clipPath>
    <clipPath id="clippath-1">
      <rect class="cls-1" x="49.2" y="15.6" width="51.56" height="51.39"/>
    </clipPath>
  </defs>
  <g id="c810b8efef">
    <g class="cls-3">
      <path class="cls-4" d="M117.15,55.98h-12.2c-1.49,3-3.43,5.79-5.76,8.18h17.96c3.51,0,6.36,2.85,6.36,6.35v49.33c0,3.5-2.86,6.35-6.36,6.35H32.85c-3.51,0-6.36-2.85-6.36-6.35v-49.31c0-3.5,2.86-6.35,6.36-6.35h17.96c-2.33-2.4-4.23-5.18-5.72-8.18h-12.24c-8.04,0-14.56,6.55-14.56,14.54v49.33c0,7.99,6.51,14.54,14.56,14.54h84.29c8.04,0,14.57-6.55,14.57-14.54v-49.34c-.01-7.99-6.53-14.54-14.57-14.54Z"/>
    </g>
    <path class="cls-4" d="M36.16,110.36v5.01c0,.64.51,1.15,1.15,1.15h34.05c.64,0,1.15-.51,1.15-1.15v-5.01c0-6.05-4.92-10.97-10.98-10.97h-14.39c-6.07,0-10.98,4.91-10.98,10.97Z"/>
    <path class="cls-4" d="M65.31,84.79c0-6.05-4.91-10.95-10.97-10.95s-10.97,4.9-10.97,10.95,4.91,10.95,10.97,10.95,10.97-4.9,10.97-10.95Z"/>
    <path class="cls-4" d="M113.85,78.18c0-2.25-1.83-4.08-4.08-4.08h-25.49c-2.26,0-4.08,1.83-4.08,4.08s1.83,4.08,4.08,4.08h25.47c2.27,0,4.1-1.83,4.1-4.08Z"/>
    <path class="cls-4" d="M109.76,91.1h-25.47c-2.26,0-4.08,1.83-4.08,4.08s1.83,4.08,4.08,4.08h25.47c2.25,0,4.08-1.83,4.08-4.08s-1.82-4.08-4.08-4.08Z"/>
    <path class="cls-4" d="M109.76,108.11h-25.47c-2.26,0-4.08,1.83-4.08,4.08s1.83,4.08,4.08,4.08h25.47c2.25,0,4.08-1.83,4.08-4.08.01-2.25-1.82-4.08-4.08-4.08Z"/>
    <g class="cls-2">
      <path class="cls-4" d="M75,66.97c14.22,0,25.73-11.5,25.73-25.68.01-14.19-11.51-25.7-25.73-25.7s-25.73,11.5-25.73,25.68,11.52,25.7,25.73,25.7ZM62.44,38.28c1.43-1.33,3.67-1.25,5,.17l4.73,5.08,10.4-11.14c1.33-1.43,3.57-1.5,5-.18,1.43,1.33,1.5,3.56.18,4.99l-12.97,13.92c-.66.71-1.6,1.13-2.58,1.13s-1.92-.41-2.59-1.13l-7.33-7.85c-1.33-1.42-1.25-3.66.18-4.99Z"/>
    </g>
  </g>
</svg>