<?xml version="1.0" encoding="UTF-8"?>
<svg id="Capa_1" data-name="Capa 1" xmlns="http://www.w3.org/2000/svg" viewBox="0 0 150 150">
  <defs>
    <style>
      .cls-1 {
        fill: #002f87;
      }
    </style>
  </defs>
  <g id="Page-1">
    <g id="_026---Idea" data-name="026---Idea">
      <path id="Shape" class="cls-1" d="M129.71,78.16c-.39-2.05-2.19-3.53-4.27-3.53h-4.2l-.31-1.85c-.31-1.86-1.77-3.31-3.64-3.61-.41-.07-.83-.11-1.24-.17.71-3.33.12-6.8-1.65-9.7.94-2.43.76-5.15-.48-7.44-1.24-2.29-3.42-3.92-5.97-4.47-1.63-8.72-9.22-15.06-18.09-15.11-.22,0-.41.03-.62.03-1.42-2.23-3.75-3.7-6.37-4.03s-5.25.53-7.17,2.35c-2.42-1.57-5.24-2.41-8.12-2.41-4.65.02-9.03,2.18-11.88,5.85-3.16-.92-6.57-.36-9.27,1.54-2.69,1.89-4.38,4.91-4.58,8.2-3.32,1.4-5.48,4.65-5.49,8.25,0,.62.08,1.25.22,1.86-2.94,4.43-3.71,9.95-2.09,15.01-.58.08-1.18.15-1.74.23-1.87.28-3.35,1.74-3.66,3.6l-.31,1.86h-4.21c-2.08,0-3.87,1.48-4.27,3.52l-9.53,48.92c-.37,1.92.13,3.9,1.38,5.4,1.24,1.5,3.09,2.37,5.05,2.37h45.38c1.8,2.97,7.28,4.35,12.44,4.35s10.53-1.35,12.38-4.35h45.43c1.95,0,3.8-.87,5.04-2.37s1.75-3.49,1.38-5.4l-9.53-48.91ZM42.94,56c-1.77-1.06-2.61-3.17-2.06-5.16s2.35-3.37,4.41-3.38c1.44,0,2.8.68,3.65,1.85.46.62,1.22.95,2,.86s1.44-.58,1.75-1.3c.31-.71.21-1.54-.25-2.16-1.48-1.97-3.72-3.24-6.17-3.48.65-3.05,3.34-5.23,6.45-5.24.27.01.53.04.79.09-.18.45-.33.9-.46,1.36-.27,1.15.43,2.31,1.57,2.6,1.15.3,2.32-.38,2.64-1.52.25-.96.63-1.87,1.13-2.72,1.93-3.23,5.41-5.22,9.18-5.24,2.05,0,4.05.61,5.76,1.74-.33.92-.5,1.88-.51,2.85,0,1.2.97,2.18,2.18,2.18s2.18-.97,2.18-2.18c0-2.53,2.05-4.58,4.58-4.58s4.58,2.05,4.58,4.58c0,1.2.97,2.18,2.18,2.18s2.18-.97,2.18-2.18c0-.17-.04-.33-.05-.49,6.23.38,11.47,4.81,12.89,10.89-1.01.3-1.97.77-2.82,1.4-.62.47-.95,1.23-.85,2s.59,1.44,1.31,1.74c.71.31,1.54.21,2.16-.26,1.74-1.29,4.14-1.18,5.76.25s2.02,3.8.96,5.69c-.47.83-1.19,1.5-2.06,1.91-.91.44-1.4,1.45-1.17,2.43.22.99,1.09,1.69,2.1,1.7.32,0,.63-.07.92-.21.58-.28,1.12-.62,1.63-1.02,1.12,3.2.42,6.75-1.84,9.28l-.05.05c-2.83,3.07-7.36,3.9-11.1,2.04-.37-.19-.72-.41-1.05-.66,1.6-2.25,1.82-5.2.57-7.66-.35-.69-1.04-1.15-1.82-1.19s-1.52.33-1.94.98-.47,1.48-.12,2.17c.72,1.44.27,3.18-1.05,4.1-.77.52-1.73.68-2.63.45s-1.66-.83-2.09-1.65c-.35-.7-1.04-1.15-1.82-1.2s-1.52.32-1.95.97c-.43.65-.48,1.48-.13,2.17,1.28,2.58,3.91,4.2,6.78,4.2.94,0,1.86-.19,2.73-.54.78.68,1.63,1.26,2.55,1.74,3.1,1.61,6.71,1.94,10.05.93-2.15,2.94-5.37,4.91-8.96,5.49-1.12.18-1.91,1.19-1.82,2.32.09,1.13,1.03,2,2.16,2,.12,0,.23,0,.35-.03,1.32-.23,2.62-.61,3.86-1.13.67,1.19,1.21,2.44,1.62,3.74.07.23.11.46.11.7,0,.94-.56,1.79-1.43,2.16-1,.39-2.14.08-2.81-.76-1.69-1.98-3.89-3.45-6.37-4.23-4.7-1.58-6.52-2.98-7.29-4.52,1.13-.14,2.24-.37,3.34-.7.74-.23,1.31-.84,1.48-1.59s-.07-1.55-.64-2.08-1.38-.71-2.12-.49c-1.22.37-2.48.61-3.76.69-2.46.19-4.92-.18-7.21-1.09-.86-.34-1.84-.09-2.44.61-3.17,3.64-8.59,4.26-12.5,1.43-3.91-2.83-5-8.18-2.53-12.32.4-.67.41-1.5.04-2.18s-1.09-1.11-1.87-1.12-1.51.39-1.91,1.06c-.52.88-.94,1.82-1.24,2.8-1.71-.09-3.06-1.49-3.09-3.21v-.05c0-.57-.23-1.12-.64-1.53s-.96-.63-1.54-.62c-1.21.01-2.18,1-2.18,2.2,0,3.86,2.92,7.09,6.76,7.51,0,.73.07,1.46.2,2.18-4.86,1.05-9.9-.7-13.06-4.53-3.17-3.83-3.93-9.11-1.98-13.68.49.49,1.03.93,1.62,1.29,1.03.6,2.35.27,2.96-.75s.29-2.35-.72-2.97h0ZM33.36,73.47c1-.15,2.04-.28,3.07-.41,4.02,6.43,11.72,9.55,19.08,7.74,1.98,3.76,5.6,6.38,9.78,7.08,4.19.71,8.46-.57,11.57-3.47,1.48.44,3,.72,4.54.82,1.05,3.99,4.09,6.4,10.47,8.54,1.72.54,3.26,1.55,4.43,2.92,1.31,1.55,3.23,2.46,5.26,2.47.89,0,1.77-.18,2.58-.53,2.47-1.05,4.07-3.48,4.07-6.16,0-.7-.11-1.39-.33-2.06-.49-1.54-1.13-3.02-1.92-4.43,3.7-2.66,6.28-6.6,7.23-11.06.46-.55.88-1.14,1.25-1.75.73.09,1.46.18,2.19.3l7.86,47.25c-15.35-5.13-31.96-5.13-47.31,0v-27.24c0-1.2-.97-2.18-2.18-2.18s-2.18.97-2.18,2.18v27.25c-15.35-5.13-31.96-5.14-47.31-.02l7.85-47.25ZM15.49,129.68c-.41-.5-.58-1.15-.46-1.78l9.53-48.92h3.48l-6.83,41.04c-.24,1.49.31,3.01,1.45,4,1.14.99,2.72,1.32,4.16.87,11.6-3.76,23.96-4.54,35.94-2.28l-.65,7.89H17.19c-.66,0-1.28-.29-1.7-.8ZM75,134.84c-5.24,0-8.25-1.55-8.69-2.24l.75-9.03c2.39.6,4.73,1.38,7,2.35.29.14.61.22.94.22.33,0,.65-.07.94-.22,2.27-.97,4.61-1.76,7-2.36l.75,9.04c-.44.69-3.45,2.24-8.69,2.24h0ZM134.51,129.68c-.42.51-1.04.8-1.7.8h-44.93l-.65-7.9c11.99-2.26,24.35-1.47,35.95,2.3,1.44.45,3.01.11,4.15-.88,1.14-.99,1.68-2.5,1.44-3.99l-6.82-41.03h3.48l9.53,48.91c.12.63-.05,1.29-.46,1.79h0Z"/>
      <path id="Shape-2" data-name="Shape" class="cls-1" d="M67.79,60.17c-.89.81-.96,2.18-.15,3.07,1.85,2.04,4.29,3.44,6.97,4.02-1.22,1.72-3.19,2.73-5.3,2.73-1.2,0-2.18.97-2.18,2.18s.97,2.18,2.18,2.18c4.5.02,8.55-2.76,10.14-6.98,5.41-.9,9.69-5.06,10.74-10.44.16-.77-.1-1.57-.7-2.09-.59-.52-1.42-.68-2.16-.41s-1.28.91-1.42,1.68c-.43,2.24-1.72,4.23-3.6,5.52-3.62,2.44-8.48,1.88-11.45-1.31-.81-.89-2.18-.96-3.07-.15h0Z"/>
      <path id="Shape-3" data-name="Shape" class="cls-1" d="M60.2,57.81c1.2,0,2.18-.97,2.18-2.18,0-1.5.6-2.94,1.66-4s2.5-1.66,4-1.66c1.2,0,2.18-.97,2.18-2.18s-.97-2.18-2.18-2.18c-5.53,0-10,4.48-10.01,10.01,0,.58.23,1.13.64,1.54s.96.64,1.54.64Z"/>
      <path id="Shape-4" data-name="Shape" class="cls-1" d="M77.18,15.16v-2.18c0-1.2-.97-2.18-2.18-2.18s-2.18.97-2.18,2.18v2.18c0,1.2.97,2.18,2.18,2.18s2.18-.97,2.18-2.18Z"/>
      <path id="Shape-5" data-name="Shape" class="cls-1" d="M110.71,26.43l-2.18,2.18c-.57.55-.79,1.36-.59,2.12s.79,1.35,1.55,1.55c.76.2,1.57-.03,2.12-.59l2.18-2.18c.57-.55.79-1.36.59-2.12s-.79-1.35-1.55-1.55c-.76-.2-1.57.03-2.12.59Z"/>
      <path id="Shape-6" data-name="Shape" class="cls-1" d="M39.93,32.32c.88,0,1.67-.53,2.01-1.34s.15-1.75-.47-2.37l-2.18-2.18c-.55-.57-1.36-.79-2.12-.59s-1.35.79-1.55,1.55.03,1.57.59,2.12l2.18,2.18c.41.41.96.64,1.54.64Z"/>
      <path id="Shape-7" data-name="Shape" class="cls-1" d="M56.68,23.16c.29,0,.57-.06.83-.17.53-.22.96-.64,1.18-1.18s.22-1.13,0-1.67l-2.5-6.03c-.29-.73-.95-1.26-1.73-1.37-.78-.11-1.56.21-2.03.84s-.57,1.47-.26,2.19l2.5,6.03c.34.81,1.13,1.34,2.01,1.34h0Z"/>
      <path id="Shape-8" data-name="Shape" class="cls-1" d="M96.65,12.94c-1.11-.46-2.38.07-2.84,1.18l-2.5,6.03c-.22.53-.22,1.13,0,1.67.22.53.64.96,1.18,1.18.26.11.55.16.83.17.88,0,1.67-.53,2.01-1.34l2.5-6.03c.22-.53.22-1.13,0-1.67-.22-.53-.64-.96-1.18-1.18Z"/>
      <path id="Shape-9" data-name="Shape" class="cls-1" d="M119.23,49.07c.29,0,.57-.06.83-.17l6.03-2.5c.72-.3,1.22-.96,1.33-1.73s-.22-1.54-.83-2.01c-.62-.47-1.44-.58-2.16-.28l-6.03,2.5c-.96.4-1.51,1.42-1.31,2.44s1.1,1.75,2.14,1.75h0Z"/>
      <path id="Shape-10" data-name="Shape" class="cls-1" d="M29.94,48.9c1.11.46,2.38-.07,2.84-1.18.46-1.11-.07-2.38-1.18-2.84l-6.03-2.5c-1.11-.46-2.38.07-2.84,1.18s.07,2.38,1.18,2.84l6.03,2.5Z"/>
    </g>
  </g>
</svg>