<?xml version="1.0" encoding="UTF-8"?>
<svg id="Capa_1" data-name="Capa 1" xmlns="http://www.w3.org/2000/svg" viewBox="0 0 150 150">
  <defs>
    <style>
      .cls-1 {
        fill: #002f87;
      }
    </style>
  </defs>
  <g id="_1108c0e55f" data-name="1108c0e55f">
    <path class="cls-1" d="M125.71,24.29v-1.18c0-2.21-.86-4.28-2.42-5.84-1.56-1.56-3.63-2.42-5.84-2.42-4.55,0-8.26,3.7-8.26,8.26v1.18h-4.72v-1.18c0-2.21-.86-4.28-2.42-5.84-1.56-1.56-3.63-2.42-5.84-2.42-4.55,0-8.26,3.7-8.26,8.26v1.18h-4.72v-1.18c0-2.21-.86-4.28-2.42-5.84-1.56-1.56-3.63-2.42-5.84-2.42-4.55,0-8.26,3.7-8.26,8.26v1.18h-4.72v-1.18c0-2.21-.86-4.28-2.42-5.84-1.56-1.56-3.63-2.42-5.84-2.42-4.55,0-8.26,3.7-8.26,8.26v1.18h-4.72v-1.18c0-2.21-.86-4.28-2.42-5.84-1.56-1.56-3.63-2.42-5.84-2.42-4.55,0-8.25,3.7-8.25,8.26v1.18c-5.2,0-9.43,4.23-9.43,9.43v91.98c0,5.2,4.23,9.43,9.43,9.43h101.41c5.2,0,9.43-4.23,9.43-9.43V33.73c0-5.2-4.23-9.43-9.43-9.43ZM130.42,125.71c0,2.6-2.12,4.72-4.72,4.72H24.29c-2.6,0-4.72-2.12-4.72-4.72V50.24h4.72v73.11c0,1.3,1.06,2.36,2.36,2.36h96.7c1.3,0,2.36-1.06,2.36-2.36V50.24h4.72v75.47ZM29.01,120.99V50.24h91.98v70.75H29.01ZM130.42,45.52H19.58v-11.79c0-2.6,2.12-4.72,4.72-4.72v1.18c0,4.55,3.7,8.25,8.25,8.25s8.26-3.7,8.26-8.25v-1.18h4.72v1.18c0,4.55,3.7,8.25,8.26,8.25s8.26-3.7,8.26-8.25v-1.18h4.72v1.18c0,4.55,3.7,8.25,8.26,8.25s8.26-3.7,8.26-8.25v-1.18h4.72v1.18c0,4.55,3.7,8.25,8.26,8.25s8.26-3.7,8.26-8.25v-1.18h4.72v1.18c0,4.55,3.7,8.25,8.26,8.25s8.25-3.7,8.25-8.25v-1.18c2.6,0,4.72,2.12,4.72,4.72v11.79Z"/>
    <path class="cls-1" d="M105.62,83.32c-.19-.05-.38-.07-.57-.07h-2.93v-14.15c0-.65-.26-1.24-.69-1.67.44-.92.69-1.96.69-3.05,0-3.36-4.17-7.58-5.45-8.79-.91-.86-2.33-.86-3.24,0-1.28,1.21-5.45,5.43-5.45,8.79,0,1.09.25,2.12.69,3.05-.43.43-.69,1.02-.69,1.67v14.15h-7.08v-14.15c0-.65-.26-1.24-.69-1.67.44-.92.69-1.96.69-3.05,0-3.36-4.17-7.58-5.45-8.79-.91-.86-2.33-.86-3.24,0-1.28,1.21-5.45,5.43-5.45,8.79,0,1.09.25,2.12.69,3.05-.43.43-.69,1.02-.69,1.67v14.15h-7.08v-14.15c0-.65-.26-1.24-.69-1.67.44-.92.69-1.96.69-3.05,0-3.36-4.17-7.58-5.45-8.79-.91-.86-2.33-.86-3.24,0-1.28,1.21-5.45,5.43-5.45,8.79,0,1.09.25,2.12.69,3.05-.43.43-.69,1.02-.69,1.67v14.15c-.45.01-.72-.03-1.14.07-3.5.87-5.94,3.75-5.94,7.01v23.58c0,1.3,1.06,2.36,2.36,2.36h68.4c1.3,0,2.36-1.06,2.36-2.36v-23.58c0-3.26-2.44-6.14-5.94-7.01ZM95.05,60.73c1.31,1.52,2.33,3.04,2.36,3.66,0,1.3-1.06,2.36-2.36,2.36s-2.36-1.06-2.36-2.35c.03-.62,1.04-2.14,2.36-3.66ZM73.82,60.73c1.31,1.52,2.33,3.04,2.36,3.66,0,1.3-1.06,2.36-2.36,2.36s-2.36-1.06-2.36-2.35c.03-.62,1.04-2.14,2.36-3.66ZM52.59,60.73c1.31,1.52,2.33,3.04,2.36,3.66,0,1.3-1.06,2.36-2.36,2.36s-2.36-1.06-2.36-2.35c.03-.62,1.04-2.14,2.36-3.66ZM106.84,111.56h-63.68v-5.99c3.85,2.2,8.57,1.52,11.51-1.73,3.63,4.01,9.91,4.01,13.55,0,3.63,4.01,9.91,4.02,13.55,0,3.63,4.01,9.91,4.01,13.55,0,2.99,3.3,7.75,3.9,11.52,1.73v5.99ZM106.84,97.71c0,2.35-2.22,4.41-4.74,4.41s-4.42-1.96-4.42-4.41v-2.66c0-1.3-1.06-2.36-2.36-2.36s-2.36,1.06-2.36,2.36v2.66c0,2.43-1.98,4.41-4.41,4.41s-4.42-1.99-4.42-4.41v-2.66c0-1.3-1.06-2.36-2.36-2.36s-2.36,1.06-2.36,2.36v2.66c0,2.43-1.98,4.41-4.41,4.41s-4.41-2-4.41-4.41v-2.66c0-1.3-1.06-2.36-2.36-2.36s-2.36,1.06-2.36,2.36v2.66c0,2.43-1.98,4.41-4.42,4.41s-4.41-1.96-4.41-4.41v-2.66c0-1.3-1.06-2.36-2.36-2.36s-2.36,1.06-2.36,2.36v2.66c0,2.43-1.98,4.41-4.42,4.41s-4.74-1.97-4.74-4.41v-7.38c0-1.13,1.03-2.01,2.11-2.36h59.45c1.09.35,2.11,1.23,2.11,2.36v7.38Z"/>
  </g>
</svg>