<?xml version="1.0" encoding="UTF-8"?>
<svg id="Capa_1" data-name="Capa 1" xmlns="http://www.w3.org/2000/svg" viewBox="0 0 150 150">
  <defs>
    <style>
      .cls-1 {
        fill: #002f87;
      }
    </style>
  </defs>
  <g id="Page-1">
    <g id="_011---Five-Star-Hotel" data-name="011---Five-Star-Hotel">
      <path id="Shape" class="cls-1" d="M87.62,20.5c-.51-1.53-1.83-2.65-3.43-2.89l-3.71-.57-1.58-3.37c-.71-1.51-2.23-2.48-3.89-2.48s-3.19.97-3.89,2.48l-1.58,3.37-3.71.57c-1.59.24-2.92,1.36-3.43,2.89-.51,1.53-.13,3.22,1,4.37l2.82,2.89-.64,3.96c-.27,1.63.41,3.27,1.76,4.22,1.35.95,3.12,1.05,4.56.25l3.11-1.73,3.12,1.72c1.44.8,3.21.7,4.56-.25,1.35-.94,2.04-2.58,1.77-4.21l-.64-3.96,2.82-2.89c1.13-1.15,1.51-2.84,1-4.37h0ZM80,25.55c-.47.48-.68,1.16-.58,1.83l.75,5.07-4.14-2.29c-.64-.35-1.42-.35-2.06,0l-4.22,2.24.82-5.02c.11-.67-.11-1.34-.58-1.83l-3.54-3.74,4.83-.74c.7-.11,1.3-.56,1.61-1.2l2.13-4.42v.03s2.08,4.4,2.08,4.4c.3.64.9,1.09,1.61,1.2l4.86.82-3.56,3.66Z"/>
      <path id="Shape-2" data-name="Shape" class="cls-1" d="M57.77,23.96c-.48-1.45-1.73-2.5-3.24-2.73l-3.19-.49-1.36-2.93c-.67-1.44-2.1-2.35-3.69-2.35s-3.02.92-3.69,2.35l-1.36,2.93-3.19.49c-1.51.24-2.76,1.3-3.24,2.74-.48,1.45-.12,3.04.94,4.14l2.45,2.53-.56,3.47c-.26,1.54.39,3.1,1.66,4s2.96.99,4.33.22l2.67-1.49,2.67,1.49c1.37.76,3.04.67,4.32-.23s1.93-2.45,1.67-3.99l-.56-3.47,2.45-2.53c1.06-1.1,1.42-2.7.93-4.15ZM50.59,28.44c-.47.48-.68,1.16-.57,1.82l.67,4.16-3.37-1.87c-.64-.36-1.42-.36-2.07,0l-3.37,1.87.67-4.16c.11-.66-.11-1.34-.57-1.82l-2.97-3.06,3.99-.61c.7-.11,1.3-.56,1.61-1.2l1.62-3.72,1.73,3.72c.3.64.9,1.09,1.61,1.2l3.99.61-2.97,3.06Z"/>
      <path id="Shape-3" data-name="Shape" class="cls-1" d="M32.25,31.68c-.45-1.37-1.63-2.37-3.06-2.59l-2.71-.43-1.16-2.48c-.63-1.36-1.99-2.23-3.49-2.23s-2.86.87-3.49,2.23l-1.16,2.49-2.71.43c-1.42.23-2.6,1.23-3.06,2.59-.46,1.37-.12,2.87.88,3.91l2.1,2.16-.48,2.96c-.25,1.46.37,2.93,1.58,3.78,1.21.85,2.8.94,4.09.22l2.26-1.26,2.26,1.26c1.29.72,2.88.63,4.09-.22s1.82-2.32,1.58-3.78l-.49-2.97,2.09-2.16c1.01-1.04,1.35-2.56.88-3.93ZM25.49,35.58c-.47.48-.68,1.16-.57,1.82l.52,3.22-2.57-1.43c-.64-.36-1.43-.36-2.07,0l-2.57,1.43.52-3.22c.11-.66-.11-1.34-.57-1.82l-2.32-2.39,3.09-.48c.7-.11,1.3-.56,1.6-1.2l1.28-2.73,1.28,2.73c.3.64.9,1.1,1.6,1.2l3.09.48-2.32,2.39Z"/>
      <path id="Shape-4" data-name="Shape" class="cls-1" d="M115.2,23.96c-.48-1.45-1.73-2.5-3.24-2.73l-3.19-.49-1.37-2.93c-.67-1.43-2.1-2.35-3.69-2.35s-3.02.92-3.69,2.35l-1.36,2.93-3.19.49c-1.51.24-2.76,1.3-3.24,2.74s-.12,3.04.94,4.14l2.45,2.53-.56,3.47c-.26,1.54.39,3.1,1.66,4s2.96.99,4.33.22l2.67-1.49,2.67,1.49c1.37.76,3.04.67,4.32-.23s1.93-2.45,1.67-3.99l-.56-3.47,2.45-2.53c1.06-1.1,1.42-2.7.93-4.15h0ZM108.01,28.44c-.47.48-.68,1.16-.57,1.82l.67,4.16-3.37-1.87c-.64-.36-1.42-.36-2.07,0l-3.37,1.87.67-4.16c.11-.66-.11-1.34-.57-1.82l-2.98-3.06,3.99-.61c.7-.11,1.3-.56,1.61-1.2l1.68-3.6,1.67,3.6c.3.64.9,1.09,1.61,1.2l3.99.61-2.97,3.06Z"/>
      <path id="Shape-5" data-name="Shape" class="cls-1" d="M121.83,44.52c1.21.85,2.79.93,4.08.21l2.26-1.26,2.26,1.26c1.29.72,2.88.63,4.09-.22,1.21-.85,1.82-2.32,1.58-3.78l-.49-2.97,2.09-2.16c1-1.04,1.35-2.55.89-3.92-.46-1.37-1.64-2.37-3.07-2.6l-2.71-.43-1.16-2.49c-.63-1.36-1.99-2.23-3.49-2.23s-2.86.87-3.49,2.23l-1.16,2.49-2.71.43c-1.43.23-2.61,1.23-3.07,2.6s-.12,2.88.89,3.92l2.09,2.16-.48,2.96c-.24,1.47.38,2.94,1.6,3.79ZM125.29,32.71c.7-.11,1.3-.56,1.6-1.2l1.27-2.73,1.28,2.73c.3.64.9,1.1,1.6,1.2l3.09.48-2.32,2.39c-.47.48-.68,1.16-.57,1.82l.52,3.22-2.57-1.43c-.64-.36-1.43-.36-2.07,0l-2.57,1.43.52-3.22c.11-.66-.11-1.34-.57-1.82l-2.32-2.39,3.09-.48Z"/>
      <path id="Shape-6" data-name="Shape" class="cls-1" d="M15.45,138.8h119.1c2.35,0,4.25-1.9,4.25-4.25v-21.27c0-2.35-1.9-4.25-4.25-4.25h-6.38v-53.17c0-3.52-2.86-6.38-6.38-6.38h-23.39v-2.13c0-3.52-2.86-6.38-6.38-6.38h-34.03c-3.52,0-6.38,2.86-6.38,6.38v2.13h-23.39c-3.52,0-6.38,2.86-6.38,6.38v53.17h-6.38c-2.35,0-4.25,1.9-4.25,4.25v21.27c0,2.35,1.9,4.25,4.25,4.25ZM28.21,134.55v-10.63h8.51v10.63h-8.51ZM66.49,121.79h6.38v12.76h-6.38v-12.76ZM77.13,134.55v-12.76h6.38v12.76h-6.38ZM113.28,134.55v-10.63h8.51v10.63h-8.51ZM121.79,53.73c1.17,0,2.13.95,2.13,2.13v53.17h-25.52v-55.29h23.39ZM55.86,47.35c0-1.17.95-2.13,2.13-2.13h34.03c1.17,0,2.13.95,2.13,2.13v61.68h-38.28v-61.68ZM26.09,55.86c0-1.17.95-2.13,2.13-2.13h23.39v55.29h-25.52v-53.17ZM15.45,113.28h119.1v21.27h-8.51v-10.63c1.17,0,2.13-.95,2.13-2.13s-.95-2.13-2.13-2.13h-17.01c-1.17,0-2.13.95-2.13,2.13s.95,2.13,2.13,2.13v10.63h-21.27v-12.76h2.13c1.17,0,2.13-.95,2.13-2.13s-.95-2.13-2.13-2.13h-29.77c-1.17,0-2.13.95-2.13,2.13s.95,2.13,2.13,2.13h2.13v12.76h-21.27v-10.63c1.17,0,2.13-.95,2.13-2.13s-.95-2.13-2.13-2.13h-17.01c-1.17,0-2.13.95-2.13,2.13s.95,2.13,2.13,2.13v10.63h-8.51v-21.27Z"/>
      <path id="Shape-7" data-name="Shape" class="cls-1" d="M64.37,64.37h4.25c2.35,0,4.25-1.9,4.25-4.25v-4.25c0-2.35-1.9-4.25-4.25-4.25h-4.25c-2.35,0-4.25,1.9-4.25,4.25v4.25c0,2.35,1.9,4.25,4.25,4.25ZM64.37,55.86h4.25v4.25h-4.25v-4.25Z"/>
      <path id="Shape-8" data-name="Shape" class="cls-1" d="M81.38,64.37h4.25c2.35,0,4.25-1.9,4.25-4.25v-4.25c0-2.35-1.9-4.25-4.25-4.25h-4.25c-2.35,0-4.25,1.9-4.25,4.25v4.25c0,2.35,1.9,4.25,4.25,4.25ZM81.38,55.86h4.25v4.25h-4.25v-4.25Z"/>
      <path id="Shape-9" data-name="Shape" class="cls-1" d="M64.37,83.51h4.25c2.35,0,4.25-1.9,4.25-4.25v-4.25c0-2.35-1.9-4.25-4.25-4.25h-4.25c-2.35,0-4.25,1.9-4.25,4.25v4.25c0,2.35,1.9,4.25,4.25,4.25ZM68.62,75v4.25h-4.25v-4.25h4.25Z"/>
      <path id="Shape-10" data-name="Shape" class="cls-1" d="M81.38,83.51h4.25c2.35,0,4.25-1.9,4.25-4.25v-4.25c0-2.35-1.9-4.25-4.25-4.25h-4.25c-2.35,0-4.25,1.9-4.25,4.25v4.25c0,2.35,1.9,4.25,4.25,4.25ZM85.63,75v4.25h-4.25v-4.25h4.25Z"/>
      <path id="Shape-11" data-name="Shape" class="cls-1" d="M68.62,89.89h-4.25c-2.35,0-4.25,1.9-4.25,4.25v4.25c0,2.35,1.9,4.25,4.25,4.25h4.25c2.35,0,4.25-1.9,4.25-4.25v-4.25c0-2.35-1.9-4.25-4.25-4.25ZM64.37,98.39v-4.25h4.25v4.25h-4.25Z"/>
      <path id="Shape-12" data-name="Shape" class="cls-1" d="M34.59,70.75h8.51c2.35,0,4.25-1.9,4.25-4.25v-4.25c0-2.35-1.9-4.25-4.25-4.25h-8.51c-2.35,0-4.25,1.9-4.25,4.25v4.25c0,2.35,1.9,4.25,4.25,4.25ZM34.59,62.24h8.51v4.25h-8.51v-4.25Z"/>
      <path id="Shape-13" data-name="Shape" class="cls-1" d="M43.1,75h-8.51c-2.35,0-4.25,1.9-4.25,4.25v4.25c0,2.35,1.9,4.25,4.25,4.25h8.51c2.35,0,4.25-1.9,4.25-4.25v-4.25c0-2.35-1.9-4.25-4.25-4.25ZM34.59,83.51v-4.25h8.51v4.25h-8.51Z"/>
      <path id="Shape-14" data-name="Shape" class="cls-1" d="M43.1,92.01h-8.51c-2.35,0-4.25,1.9-4.25,4.25v4.25c0,2.35,1.9,4.25,4.25,4.25h8.51c2.35,0,4.25-1.9,4.25-4.25v-4.25c0-2.35-1.9-4.25-4.25-4.25ZM34.59,100.52v-4.25h8.51v4.25h-8.51Z"/>
      <path id="Shape-15" data-name="Shape" class="cls-1" d="M106.9,70.75h8.51c2.35,0,4.25-1.9,4.25-4.25v-4.25c0-2.35-1.9-4.25-4.25-4.25h-8.51c-2.35,0-4.25,1.9-4.25,4.25v4.25c0,2.35,1.9,4.25,4.25,4.25ZM106.9,62.24h8.51v4.25h-8.51v-4.25Z"/>
      <path id="Shape-16" data-name="Shape" class="cls-1" d="M102.65,79.25v4.25c0,2.35,1.9,4.25,4.25,4.25h8.51c2.35,0,4.25-1.9,4.25-4.25v-4.25c0-2.35-1.9-4.25-4.25-4.25h-8.51c-2.35,0-4.25,1.9-4.25,4.25ZM115.41,83.51h-8.51v-4.25h8.51v4.25Z"/>
      <path id="Shape-17" data-name="Shape" class="cls-1" d="M115.41,92.01h-8.51c-2.35,0-4.25,1.9-4.25,4.25v4.25c0,2.35,1.9,4.25,4.25,4.25h8.51c2.35,0,4.25-1.9,4.25-4.25v-4.25c0-2.35-1.9-4.25-4.25-4.25ZM115.41,100.52h-8.51v-4.25h8.51v4.25Z"/>
      <path id="Shape-18" data-name="Shape" class="cls-1" d="M85.63,89.89h-4.25c-2.35,0-4.25,1.9-4.25,4.25v4.25c0,2.35,1.9,4.25,4.25,4.25h4.25c2.35,0,4.25-1.9,4.25-4.25v-4.25c0-2.35-1.9-4.25-4.25-4.25ZM81.38,98.39v-4.25h4.25v4.25h-4.25Z"/>
    </g>
  </g>
</svg>