<?xml version="1.0" encoding="UTF-8"?>
<svg id="Capa_1" data-name="Capa 1" xmlns="http://www.w3.org/2000/svg" viewBox="0 0 150 150">
  <defs>
    <style>
      .cls-1 {
        fill-rule: evenodd;
      }

      .cls-1, .cls-2 {
        fill: #002f87;
      }
    </style>
  </defs>
  <g>
    <path class="cls-1" d="M117.96,77.76c2.17-.19,5.27-.81,9.64-2.01,9.3-2.54,16.35-12.52,17.48-14.43,1.13-1.92,1.13-4-.9-5.58-2.03-1.58-5.07.28-5.75,1.47-.68,1.18-3.16,4.4-8.01,8.18-4.85,3.78-13.7,4.4-13.7,4.4,0,0-.62-.11-1.41.17-.79.28-2.26,1.18-2.76,2.88-1.14,3.81,2.13,5.23,5.41,4.94Z"/>
    <path class="cls-1" d="M147.85,80.04c-3.04-1.75-11.33-4.74-18.83-1.58-.43.18-.86.39-1.28.6-.13.07-.27.14-.4.22-.29.16-.58.32-.87.5-.15.09-.29.18-.44.27-.28.18-.57.37-.84.56-.13.09-.26.18-.39.27-.37.26-.73.53-1.09.82-.03.02-.06.05-.09.07-.39.31-.77.63-1.15.96-.12.1-.23.2-.34.31-.26.23-.52.47-.78.71-.13.12-.25.24-.38.37-.1.1-.2.19-.3.29,0,0,0,0,.01,0-3.68,3.66-6.5,7.89-7.68,10.48-1.97,4.34.11,5.53,1.3,6.26,1.18.73,4.29.96,5.75-2.03,1.47-2.99,5.36-10.04,9.75-12.18,2.65-1.29,5.38-1.89,7.94-1.83.19,0,.38.01.57.03.31.02.61.05.92.09.18.02.36.05.54.08.32.06.64.13.95.21.15.04.3.07.45.11.45.13.9.29,1.32.47,2.98,1.28,6.68,2.22,7.17-1.99.15-1.29-.05-3.04-1.81-4.05Z"/>
    <path class="cls-1" d="M121.48,62.91s0,0,0,0c0,0,0,0,.01,0,1.7.83,3.57,1.25,5.46,1.22,3.02,0,5.46-3.67,5.46-8.2s-2.44-8.2-5.46-8.2c-1.89-.03-3.76.38-5.46,1.22,0,0,0,0-.01,0,0,0,0,0,0,0-2.01,1-3.46,3.74-3.46,6.97s1.45,5.97,3.46,6.97ZM130.87,55.94c0,3.08-1.67,5.58-3.72,5.58-.65,0-1.26-.25-1.79-.69-1.15-.95-1.93-2.79-1.93-4.9s.78-3.95,1.93-4.9c.53-.43,1.14-.69,1.79-.69,2.05,0,3.72,2.5,3.72,5.58ZM126.96,48.48c.57,0,1.12.15,1.62.43-.39-.16-.8-.24-1.22-.24-2.62,0-4.74,3.26-4.74,7.27s2.12,7.27,4.74,7.27c.42,0,.83-.08,1.22-.24-.51.28-1.06.43-1.62.43-2.69,0-4.86-3.34-4.86-7.45s2.18-7.45,4.86-7.45ZM124.08,63.18c-4.13-4.03-4.13-10.45,0-14.48-3.61,4.15-3.61,10.33,0,14.48ZM122.65,49.19c-3.37,3.87-3.37,9.63,0,13.51-3.84-3.76-3.84-9.75,0-13.51ZM121.28,49.77c-3.08,3.54-3.08,8.8,0,12.33-3.51-3.43-3.51-8.9,0-12.33Z"/>
    <path class="cls-1" d="M124,55.94c0,2.82,1.45,5.11,3.23,5.11s3.23-2.29,3.23-5.11-1.45-5.12-3.23-5.12-3.23,2.29-3.23,5.12ZM125.84,60.08c-.4-.23-1.69-2.11-1.41-4.4l1.72.59c.05.38.17.72.35.97l-.66,2.84ZM126.51,60.49c.22-.54.58-2.27.69-2.82,0,0,.02,0,.02,0,.18,0,.35-.07.49-.19.04.03.09.07.14.12.47.44,1.25,1.75,1.25,1.75-1.05,1.6-2.59,1.14-2.59,1.14ZM129.52,58.4l-1.28-1.85c.05-.19.07-.4.07-.61v-.04l1.55-1.22s.41,1.9-.35,3.72ZM129.63,53.62l-1.46.95s-.09.05-.2.1c-.11-.16-.24-.28-.38-.36,0,.04,0-.02,0,0,0,0,0,0,0,0,0-.01,0-.03,0-.06,0-.14-.15-2.96-.15-2.96,1.35.29,2.11,2.12,2.19,2.34ZM127.22,55.09c.29,0,.53.38.53.85s-.24.84-.53.84-.53-.38-.53-.84.24-.85.53-.85ZM126.79,51.26l-.05,3.13c-.18.14-.33.36-.44.62,0,0,0,.01,0,.01l-1.75-.59c.53-2.57,2.25-3.17,2.25-3.17Z"/>
  </g>
  <g>
    <g>
      <path class="cls-2" d="M21.96,68.04c3.24,0,5.86.98,7.88,2.93,2.01,1.95,3.02,4.43,3.02,7.45,0,4.09-1.44,7.56-4.33,10.4-2.89,2.84-6.44,4.26-10.66,4.26h-5.24l-1.67,8.28H.3l6.66-33.32h14.99ZM16.82,84.7c1.49,0,2.69-.5,3.59-1.5s1.36-2.18,1.36-3.55c0-1.01-.29-1.82-.86-2.4s-1.43-.88-2.57-.88h-2.38l-1.67,8.33h2.52Z"/>
      <path class="cls-2" d="M47.95,102.26c-3.01,0-5.7-.64-8.04-1.93-2.35-1.29-4.16-3.05-5.43-5.31-1.27-2.25-1.9-4.79-1.9-7.62,0-3.81.95-7.27,2.86-10.38,1.9-3.11,4.49-5.54,7.76-7.28,3.27-1.75,6.87-2.62,10.8-2.62,2.89,0,5.54.67,7.95,2.02,2.41,1.35,4.28,3.17,5.59,5.47,1.32,2.3,1.83,4.75,1.55,7.35h-10.95c-.22-1.55-.85-2.79-1.88-3.71-1.03-.92-2.31-1.38-3.83-1.38-2.38,0-4.4.95-6.04,2.86-1.65,1.9-2.47,4.14-2.47,6.71,0,1.84.51,3.3,1.52,4.38,1.02,1.08,2.41,1.62,4.19,1.62,1.65,0,3.17-.51,4.57-1.52,1.4-1.02,2.43-2.36,3.09-4.05h10.95c-1.4,4.82-3.92,8.59-7.57,11.3-3.65,2.71-7.88,4.07-12.71,4.07Z"/>
      <path class="cls-2" d="M100.68,78.27c0,1.71-.27,3.32-.81,4.81-.54,1.49-1.31,2.79-2.31,3.9-1,1.11-2.18,2.06-3.55,2.86l3.52,11.52h-11.18l-2.67-9.33h-3.19l-1.86,9.33h-10.61l6.66-33.32h14.85c2.19,0,4.13.43,5.83,1.29,1.7.86,3.01,2.06,3.93,3.62.92,1.56,1.38,3.33,1.38,5.33ZM83.5,76.94l-1.38,7.04h2.95c1.36,0,2.47-.41,3.31-1.24s1.26-1.84,1.26-3.05c0-.86-.28-1.53-.83-2.02-.56-.49-1.37-.74-2.45-.74h-2.86Z"/>
    </g>
    <g>
      <path class="cls-2" d="M19.1,48.65h2.44l-8.03,13.58h-1.98l-2.72-13.58h2.23l1.96,10.5,6.09-10.5Z"/>
      <path class="cls-2" d="M28.44,62.23l-.6-3.01h-6.13l-1.79,3.01h-2.37l8.19-13.58h2l2.93,13.58h-2.23ZM26.24,51.43l-3.49,5.96h4.7l-1.2-5.96Z"/>
      <path class="cls-2" d="M37.32,62.47c-1.75,0-3.15-.52-4.21-1.57s-1.59-2.4-1.59-4.05c0-1.14.22-2.22.66-3.26s1.04-1.93,1.79-2.69,1.65-1.36,2.69-1.8c1.04-.45,2.12-.67,3.25-.67.62,0,1.21.08,1.76.23s1.05.38,1.5.67c.45.29.85.64,1.18,1.04.34.4.6.86.79,1.39.19.52.31,1.08.35,1.68h-2.12c-.1-.62-.31-1.15-.63-1.59-.32-.44-.73-.78-1.24-1.01-.51-.23-1.11-.35-1.79-.35-1.07,0-2.08.28-3.01.85-.93.57-1.67,1.33-2.21,2.28-.54.95-.82,1.97-.82,3.06,0,1.15.34,2.06,1.02,2.74.68.67,1.63,1.01,2.84,1.01,1.07,0,2.07-.28,2.98-.84.91-.56,1.61-1.33,2.08-2.3h2.21c-.63,1.67-1.62,2.95-2.96,3.85-1.34.9-2.85,1.35-4.53,1.35Z"/>
      <path class="cls-2" d="M54.47,62.23l-.6-3.01h-6.13l-1.79,3.01h-2.37l8.19-13.58h2l2.93,13.58h-2.23ZM52.28,51.43l-3.49,5.96h4.7l-1.2-5.96Z"/>
      <path class="cls-2" d="M69.53,48.65h2.13l-2.72,13.58h-1.75l-5.18-9.9-1.98,9.9h-2.15l2.72-13.58h1.9l5.06,9.74,1.96-9.74Z"/>
      <path class="cls-2" d="M83.11,48.65l-.39,1.92h-3.98l-2.35,11.66h-2.11l2.33-11.66h-4.04l.39-1.92h10.15Z"/>
      <path class="cls-2" d="M91.96,50.61h-5.72l-.76,3.75h5.24l-.39,1.88h-5.22l-.82,4.02h5.94l-.39,1.98h-8.07l2.72-13.58h7.86l-.39,1.96Z"/>
      <path class="cls-2" d="M95.9,62.49c-1.33,0-2.39-.31-3.16-.94-.78-.63-1.16-1.5-1.16-2.63,0-.32.03-.64.1-.95h2.15c-.04.18-.06.35-.06.5,0,.63.24,1.12.71,1.47.47.35,1.07.52,1.79.52.87,0,1.62-.24,2.25-.71.63-.47.95-1.06.95-1.78,0-.22-.05-.42-.16-.6-.1-.18-.23-.33-.39-.45s-.37-.23-.63-.34c-.27-.11-.5-.2-.72-.26-.21-.06-.49-.14-.84-.23-.45-.12-.81-.22-1.09-.3-.27-.08-.6-.21-.98-.38-.38-.17-.68-.35-.89-.55-.21-.2-.4-.46-.55-.79-.16-.32-.23-.68-.23-1.09,0-1.42.52-2.54,1.55-3.37s2.36-1.23,3.98-1.23c1.24,0,2.21.29,2.9.86.69.58,1.04,1.37,1.04,2.38,0,.29-.03.6-.1.95h-2.1c.04-.16.06-.31.06-.47,0-.27-.06-.52-.17-.74-.11-.22-.26-.4-.46-.55-.19-.15-.43-.26-.71-.34-.28-.08-.58-.12-.9-.12-.81,0-1.51.2-2.09.6-.58.4-.86.92-.86,1.57,0,.19.05.38.15.54s.22.3.36.41c.14.1.35.21.61.32.27.11.5.19.7.25.2.06.47.13.82.22s.62.16.81.21c.19.05.44.13.76.24.32.11.57.22.75.32.18.1.39.24.62.41.23.17.41.35.53.53.12.19.23.42.31.69.08.27.13.56.13.87,0,.98-.26,1.85-.78,2.6-.52.75-1.21,1.32-2.09,1.72s-1.85.59-2.92.59Z"/>
    </g>
  </g>
</svg>