<?xml version="1.0" encoding="UTF-8"?>
<svg id="Capa_1" data-name="Capa 1" xmlns="http://www.w3.org/2000/svg" viewBox="0 0 150 150">
  <defs>
    <style>
      .cls-1 {
        fill: #002f87;
      }
    </style>
  </defs>
  <path class="cls-1" d="M128.6,138.48H21.41c-4.63,0-8.39-3.77-8.39-8.39V58.99l10.59-8.66,2.83,3.46-8.95,7.32v68.98c0,2.17,1.76,3.93,3.93,3.93h107.19c2.16,0,3.92-1.76,3.92-3.93V61.1l-8.87-7.25,2.83-3.46,10.51,8.59v71.1c0,4.63-3.77,8.39-8.39,8.39Z"/>
  <polygon class="cls-1" points="75 108.71 14.05 62.37 16.75 58.82 75 103.1 132.7 59.23 135.41 62.79 75 108.71"/>
  <rect class="cls-1" x="8.94" y="111.35" width="57.35" height="4.47" transform="translate(-69.3 59.86) rotate(-45)"/>
  <rect class="cls-1" x="110.16" y="84.91" width="4.47" height="57.35" transform="translate(-47.39 112.74) rotate(-45)"/>
  <path class="cls-1" d="M127.03,67.35h-4.47V18.73c0-1.51-1.23-2.75-2.75-2.75h-33.61v-4.47h33.61c3.98,0,7.21,3.24,7.21,7.21v48.62Z"/>
  <path class="cls-1" d="M27.44,67.35h-4.47V18.73c0-3.98,3.24-7.21,7.21-7.21h33.61v4.47H30.19c-1.51,0-2.75,1.23-2.75,2.75v48.62Z"/>
  <path class="cls-1" d="M109.26,36.9h-19.82c-4.25,0-7.71-3.46-7.71-7.71s3.46-7.71,7.71-7.71h19.82c4.25,0,7.71,3.46,7.71,7.71s-3.46,7.71-7.71,7.71ZM89.44,25.94c-1.79,0-3.24,1.46-3.24,3.24s1.46,3.24,3.24,3.24h19.82c1.79,0,3.24-1.46,3.24-3.24s-1.46-3.24-3.24-3.24h-19.82Z"/>
  <g>
    <rect class="cls-1" x="94.31" y="54.34" width="18.73" height="4.47"/>
    <rect class="cls-1" x="94.31" y="43.39" width="18.73" height="4.47"/>
  </g>
  <path class="cls-1" d="M65.21,58.08c-1.33-4.73-5.7-8.03-10.62-8.03s-9.26,3.28-10.61,7.98l-4.29-1.24c1.9-6.6,8.03-11.21,14.9-11.21s13.05,4.64,14.93,11.29l-4.3,1.21Z"/>
  <path class="cls-1" d="M54.59,50.05c-4.57,0-8.29-3.72-8.29-8.29v-1.51c0-4.57,3.72-8.29,8.29-8.29s8.29,3.72,8.29,8.29v1.51c0,4.57-3.72,8.29-8.29,8.29ZM54.59,36.41c-2.11,0-3.83,1.72-3.83,3.83v1.51c0,2.11,1.72,3.83,3.83,3.83s3.83-1.72,3.83-3.83v-1.51c0-2.11-1.72-3.83-3.83-3.83Z"/>
  <path class="cls-1" d="M54.59,64.69c-11.89,0-21.56-9.67-21.56-21.56s9.67-21.56,21.56-21.56,21.56,9.67,21.56,21.56-9.67,21.56-21.56,21.56ZM54.59,26.04c-9.42,0-17.09,7.67-17.09,17.09s7.67,17.09,17.09,17.09,17.09-7.67,17.09-17.09-7.67-17.09-17.09-17.09Z"/>
  <g>
    <rect class="cls-1" x="61.79" y="80.14" width="26.43" height="4.47"/>
    <rect class="cls-1" x="48.33" y="70.18" width="53.34" height="4.47"/>
  </g>
</svg>