<?xml version="1.0" encoding="UTF-8"?>
<svg id="Capa_1" data-name="Capa 1" xmlns="http://www.w3.org/2000/svg" xmlns:xlink="http://www.w3.org/1999/xlink" viewBox="0 0 150 150">
  <defs>
    <style>
      .cls-1 {
        fill: none;
      }

      .cls-2 {
        clip-path: url(#clippath);
      }

      .cls-3 {
        fill: #002f87;
      }
    </style>
    <clipPath id="clippath">
      <rect class="cls-1" x="14.62" y="13.03" width="120.75" height="123.94"/>
    </clipPath>
  </defs>
  <g id="ed6c9de138">
    <g class="cls-2">
      <path class="cls-3" d="M73.69,99h-15.66c-1.14,0-2.06-.92-2.06-2.07s.92-2.07,2.06-2.07h15.66c1.14,0,2.06.93,2.06,2.07s-.92,2.07-2.06,2.07ZM100.08,52c10.8,0,19.55,8.76,19.55,19.56s-8.75,19.56-19.55,19.56-19.55-8.76-19.55-19.56,8.75-19.56,19.55-19.56ZM100.08,56.13c-8.52,0-15.42,6.91-15.42,15.43,0,4.08,1.63,8.07,4.54,10.94,2.1-4.1,6.29-6.67,10.88-6.67s8.78,2.56,10.88,6.67c2.91-2.88,4.54-6.84,4.54-10.94,0-8.52-6.9-15.43-15.42-15.43ZM96.41,30.66v17.5c1.2-.19,2.43-.29,3.67-.29,1.16,0,2.31.08,3.44.25v-20.24c0-2.82-2.3-5.11-5.11-5.11h-15.54v7.11h12.77c.43,0,.77.35.77.78ZM93.91,67.07c0,3.41,2.76,6.18,6.17,6.18s6.17-2.76,6.17-6.18-2.76-6.18-6.17-6.18-6.17,2.76-6.17,6.18ZM119.11,101.64l-6.74,11.68c2.11,1.49,3.95,3.33,5.44,5.44l11.67-6.74c-2.71-4.13-6.25-7.66-10.37-10.37ZM58.03,46.91h28.56c1.14,0,2.06-.93,2.06-2.07s-.92-2.07-2.06-2.07h-28.56c-1.14,0-2.06.92-2.06,2.07s.92,2.07,2.06,2.07ZM46.1,93.45h-12.86c-.92,0-1.68.76-1.68,1.68v12.87c0,.93.76,1.68,1.68,1.68h12.86c.92,0,1.68-.75,1.68-1.68v-12.87c0-.92-.75-1.68-1.68-1.68ZM39.4,32.19v-11.74c0-.43.35-.78.77-.78h9.86c.34,0,.64-.21.74-.54,1.1-3.54,4.4-6.1,8.29-6.1s7.19,2.57,8.29,6.1c.1.33.39.54.74.54h9.86c.43,0,.77.35.77.78v11.74c0,.43-.35.78-.77.78h-37.79c-.43,0-.77-.35-.77-.78ZM56.78,20.16c0,1.27,1.03,2.3,2.3,2.3s2.3-1.03,2.3-2.3-1.03-2.3-2.3-2.3-2.3,1.03-2.3,2.3ZM21.73,119.18V30.66c0-.43.35-.78.77-.78h12.77v-7.11h-15.54c-2.81,0-5.11,2.3-5.11,5.11v94.08c0,2.81,2.3,5.11,5.11,5.11h39.69c.29-2.45.79-4.82,1.5-7.11H22.51c-.43,0-.77-.35-.77-.77ZM47.78,43.04c0-.93-.75-1.68-1.68-1.68h-12.86c-.92,0-1.68.76-1.68,1.68v12.87c0,.92.76,1.68,1.68,1.68h12.86c.92,0,1.68-.76,1.68-1.68v-12.87ZM47.78,69.09c0-.92-.75-1.68-1.68-1.68h-12.86c-.92,0-1.68.76-1.68,1.68v12.87c0,.93.76,1.68,1.68,1.68h12.86c.92,0,1.68-.76,1.68-1.68v-12.87ZM131.54,115.58l-11.67,6.74c1.24,2.67,1.97,5.63,2.07,8.74.01.42.36.75.77.75h11.9c.22,0,.4-.08.56-.23s.23-.34.22-.56c-.12-5.55-1.49-10.78-3.84-15.44ZM58.03,104.14c-1.14,0-2.06.93-2.06,2.07s.92,2.07,2.06,2.07h5.34c1.14,0,2.06-.92,2.06-2.07s-.92-2.07-2.06-2.07h-5.34ZM58.03,82.22h15.66c1.14,0,2.06-.92,2.06-2.07s-.92-2.07-2.06-2.07h-15.66c-1.14,0-2.06.93-2.06,2.07s.92,2.07,2.06,2.07ZM80.91,54.11c0-1.14-.92-2.07-2.06-2.07h-20.82c-1.14,0-2.06.92-2.06,2.07s.92,2.07,2.06,2.07h20.82c1.14,0,2.06-.93,2.06-2.07ZM101.39,109.27c2.63.24,5.13.93,7.42,1.98l6.74-11.68c-4.3-2.17-9.09-3.5-14.16-3.79v13.49ZM73.69,68.83h-15.66c-1.14,0-2.06.93-2.06,2.07s.92,2.07,2.06,2.07h15.66c1.14,0,2.06-.92,2.06-2.07s-.92-2.07-2.06-2.07ZM109.1,119.11l-7.89,7.89c-.58-.23-1.22-.35-1.88-.35-2.85,0-5.16,2.31-5.16,5.16s2.31,5.16,5.16,5.16,5.16-2.31,5.16-5.16c0-.67-.13-1.3-.35-1.88l7.89-7.89c.81-.81.81-2.12,0-2.92s-2.11-.81-2.92,0ZM69.18,112.01l11.67,6.74c1.49-2.11,3.33-3.95,5.43-5.44l-6.74-11.68c-4.12,2.71-7.66,6.25-10.37,10.37ZM63.28,131.02c0,.22.07.4.22.56s.34.23.55.23h11.9c.42,0,.76-.33.77-.75.1-3.11.83-6.06,2.07-8.74l-11.67-6.74c-2.35,4.66-3.72,9.9-3.84,15.44ZM97.26,95.79c-5.07.29-9.86,1.62-14.16,3.79l6.74,11.68c2.29-1.06,4.79-1.75,7.41-1.98v-13.49h0Z"/>
    </g>
  </g>
</svg>