<?xml version="1.0" encoding="UTF-8"?>
<svg id="Capa_1" data-name="Capa 1" xmlns="http://www.w3.org/2000/svg" viewBox="0 0 150 150">
  <defs>
    <style>
      .cls-1 {
        fill: #002f87;
      }
    </style>
  </defs>
  <path class="cls-1" d="M128.72,38.43H35.45c-6.62,0-12.03,5.42-12.03,12.05v4.52c0,1.66,1.35,3.01,3.01,3.01s3.01-1.35,3.01-3.01v-4.52c0-.6.15-1.2.3-1.81l33.7,28.92-33.7,28.92c-.15-.6-.3-1.2-.3-1.81v-4.52c0-1.66-1.35-3.01-3.01-3.01s-3.01,1.36-3.01,3.01v4.52c0,6.63,5.42,12.05,12.03,12.05h93.28c6.62,0,12.03-5.42,12.03-12.05v-54.22c0-6.63-5.42-12.05-12.03-12.05ZM34.25,44.61c.3-.15.75-.15,1.2-.15h93.28c.45,0,.9,0,1.2.15l-45.89,39.31c-1.2.9-2.71.9-3.91,0l-45.89-39.31ZM128.72,110.72H35.45c-.45,0-.9,0-1.2-.15l33.85-29.07,8.12,7.08c1.66,1.51,3.76,2.26,5.87,2.26s4.21-.75,5.87-2.26l8.12-7.08,33.85,29.07c-.3.15-.75.15-1.2.15ZM134.74,104.7c0,.6-.15,1.2-.3,1.81l-33.7-28.92,33.7-28.92c.15.6.3,1.2.3,1.81v54.22ZM14.39,70.06c0-1.66,1.35-3.01,3.01-3.01h18.05c1.66,0,3.01,1.36,3.01,3.01s-1.35,3.01-3.01,3.01h-18.05c-1.66,0-3.01-1.35-3.01-3.01ZM35.45,88.13H8.37c-1.66,0-3.01-1.35-3.01-3.01s1.35-3.01,3.01-3.01h27.08c1.66,0,3.01,1.36,3.01,3.01s-1.35,3.01-3.01,3.01Z"/>
</svg>