<?xml version="1.0" encoding="UTF-8"?>
<svg id="Capa_1" data-name="Capa 1" xmlns="http://www.w3.org/2000/svg" viewBox="0 0 150 150">
  <defs>
    <style>
      .cls-1 {
        fill: #002f87;
      }
    </style>
  </defs>
  <path class="cls-1" d="M128.29,13.51H21.71c-4.53,0-8.2,3.67-8.2,8.2v106.59c0,4.53,3.67,8.2,8.2,8.2h106.59c4.53,0,8.2-3.67,8.2-8.2V21.71c0-4.53-3.67-8.2-8.2-8.2ZM118.91,112.46c-5.68-9.66-17.1-16.81-30.7-19.68l12.11-22.67c1.09.83,1.91,1.97,2.36,3.26.67,1.99,2.77,3.12,4.8,2.6,1.9-.45,3.91-.12,5.57.91,1.14.6,2.14,1.43,2.92,2.46.77,1.08,2.01,1.72,3.33,1.72.25,0,.5-.02.74-.07,1.55-.28,2.79-1.43,3.2-2.95h0c3.36-11.95-1.99-24.64-12.89-30.59-10.82-5.98-24.36-3.47-32.3,6-1.03,1.18-1.29,2.84-.67,4.28.62,1.47,2.03,2.45,3.62,2.53,1.27.09,2.5.47,3.6,1.11,1.78.86,3.16,2.39,3.84,4.25.68,1.99,2.77,3.12,4.8,2.6,1.13-.28,2.3-.26,3.42.04l-12.71,23.78c-2.97-.42-5.96-.63-8.96-.64-19.13,0-36.45,8.4-43.91,21.05-1.17-.38-2.4-.57-3.63-.55-2.58-.03-5.09.82-7.11,2.41-.82.64-1.75,1.12-2.74,1.43V34h114.79v81.74c-.99-.31-1.91-.8-2.72-1.43-3.07-2.33-7.09-3.02-10.76-1.84h0ZM80.18,103.46c1,.53,2.24.16,2.77-.84,0,0,0,0,0,0l3.24-6.07c12.96,2.43,23.83,8.96,29.11,17.87-1.3,1.06-2.94,1.62-4.62,1.58-1.74.03-3.44-.57-4.78-1.69-4.19-3.22-10.02-3.22-14.21,0-2.79,2.25-6.77,2.25-9.56,0-4.19-3.22-10.02-3.22-14.21,0-2.79,2.25-6.77,2.25-9.56,0-4.19-3.21-10.02-3.21-14.22,0-1.34,1.12-3.04,1.72-4.78,1.69-1.7.04-3.35-.53-4.67-1.6,6.77-11.37,22.66-18.9,40.31-18.9,2.31,0,4.61.13,6.9.39l-2.56,4.79c-.53,1-.16,2.24.84,2.77,0,0,0,0,0,0ZM90.98,61.64c-1.14-1.62-2.65-2.95-4.41-3.87-1.66-.94-3.51-1.5-5.41-1.66,5.37-6.39,13.92-9.16,22.02-7.11-5.14,3.03-9.36,7.41-12.19,12.66h0ZM107.97,51.47c.8,2.25,1.88,8.12-2.73,17.94-1.15-1.63-2.67-2.97-4.43-3.89-1.95-1.13-4.18-1.67-6.42-1.57,5.7-9.51,11.26-11.88,13.59-12.46h0ZM112.68,54.12c6.27,5.78,8.82,14.56,6.62,22.8h-.02c-1.13-1.52-2.59-2.76-4.27-3.64-1.77-1.02-3.77-1.57-5.81-1.6-.19,0-.36.03-.54.04,3.79-7.84,4.41-13.67,4.02-17.58h0ZM21.71,17.61h106.59c2.26,0,4.1,1.84,4.1,4.1v8.2H17.61v-8.2c0-2.26,1.84-4.1,4.1-4.1ZM128.29,132.39H21.71c-2.26,0-4.1-1.84-4.1-4.1v-8.37c1.84-.33,3.58-1.1,5.07-2.24,1.34-1.12,3.04-1.72,4.79-1.69,1.24-.04,2.47.26,3.55.89l.02.02h.02c.41.23.79.49,1.2.77,2.02,1.6,4.53,2.45,7.11,2.42,2.58.03,5.09-.82,7.11-2.41,2.79-2.25,6.77-2.25,9.56,0,4.19,3.22,10.02,3.22,14.22,0,2.79-2.25,6.77-2.25,9.56,0,4.19,3.22,10.02,3.22,14.21,0,2.79-2.25,6.77-2.25,9.56,0,4.19,3.22,10.02,3.22,14.21,0,.4-.27.77-.52,1.15-.75h.04c1.08-.66,2.33-.98,3.59-.93,1.74-.03,3.44.57,4.77,1.69,1.48,1.14,3.21,1.91,5.05,2.24v8.37c0,2.26-1.84,4.1-4.1,4.1Z"/>
  <path class="cls-1" d="M23.75,25.8h2.05c1.13,0,2.05-.92,2.05-2.05s-.92-2.05-2.05-2.05h-2.05c-1.13,0-2.05.92-2.05,2.05s.92,2.05,2.05,2.05Z"/>
  <path class="cls-1" d="M34,25.8h2.05c1.13,0,2.05-.92,2.05-2.05s-.92-2.05-2.05-2.05h-2.05c-1.13,0-2.05.92-2.05,2.05s.92,2.05,2.05,2.05Z"/>
  <path class="cls-1" d="M44.25,25.8h2.05c1.13,0,2.05-.92,2.05-2.05s-.92-2.05-2.05-2.05h-2.05c-1.13,0-2.05.92-2.05,2.05s.92,2.05,2.05,2.05Z"/>
  <path class="cls-1" d="M113.95,25.8h12.3c1.13,0,2.05-.92,2.05-2.05s-.92-2.05-2.05-2.05h-12.3c-1.13,0-2.05.92-2.05,2.05s.92,2.05,2.05,2.05Z"/>
  <path class="cls-1" d="M60.65,58.6h-4.28c-.31-1.83-1.03-3.56-2.1-5.07l3.03-3.03c.79-.81.76-2.11-.05-2.9-.79-.77-2.05-.77-2.85,0l-3.03,3.03c-1.51-1.07-3.24-1.79-5.07-2.1v-4.28c0-1.13-.92-2.05-2.05-2.05s-2.05.92-2.05,2.05v4.28c-1.83.31-3.56,1.03-5.07,2.1l-3.03-3.03c-.81-.79-2.11-.76-2.9.05-.77.79-.77,2.05,0,2.85l3.03,3.03c-1.07,1.51-1.79,3.24-2.1,5.07h-4.28c-1.13,0-2.05.92-2.05,2.05s.92,2.05,2.05,2.05h4.28c.31,1.83,1.03,3.56,2.1,5.07l-3.03,3.03c-.81.79-.84,2.08-.05,2.9s2.08.84,2.9.05c.02-.02.03-.03.05-.05l3.03-3.03c1.51,1.07,3.24,1.79,5.07,2.1v4.28c0,1.13.92,2.05,2.05,2.05s2.05-.92,2.05-2.05v-4.28c1.83-.31,3.56-1.03,5.07-2.1l3.03,3.03c.81.79,2.11.76,2.9-.05.77-.79.77-2.05,0-2.85l-3.03-3.03c1.07-1.51,1.79-3.24,2.1-5.07h4.28c1.13,0,2.05-.92,2.05-2.05s-.92-2.05-2.05-2.05ZM44.25,68.85c-4.53,0-8.2-3.67-8.2-8.2s3.67-8.2,8.2-8.2,8.2,3.67,8.2,8.2-3.67,8.2-8.2,8.2Z"/>
</svg>