<?xml version="1.0" encoding="UTF-8"?>
<svg id="Capa_1" data-name="Capa 1" xmlns="http://www.w3.org/2000/svg" viewBox="0 0 150 150">
  <defs>
    <style>
      .cls-1 {
        fill: #002f87;
      }
    </style>
  </defs>
  <path class="cls-1" d="M102.32,25.96c-1.85-7.9-8.82-13.41-16.94-13.41v-4.74c10.33,0,19.2,7.02,21.56,17.07l-4.62,1.08Z"/>
  <path class="cls-1" d="M140.6,63.04h-4.74c0-9.6-7.81-17.4-17.41-17.4h-7.62c-4.44,0-8.06-3.61-8.06-8.06v-3.06h4.74v3.06c0,1.83,1.49,3.32,3.31,3.32h7.62c6.69,0,12.69,2.98,16.76,7.68-1.01-4.26-3.18-8.16-6.35-11.33l-17.7-17.7c-4.51-4.51-10.51-6.99-16.89-6.99h-8.9v-4.74s8.9,0,8.9,0c7.65,0,14.84,2.98,20.24,8.38l17.7,17.7c5.41,5.41,8.39,12.6,8.39,20.25v8.9Z"/>
  <path class="cls-1" d="M130.23,132.35h-47.13v-4.74h47.13c3.1,0,5.62-2.52,5.62-5.63V54.14h4.74v67.84c0,5.72-4.65,10.37-10.37,10.37Z"/>
  <path class="cls-1" d="M40.46,96.78h-4.74V18.18c0-5.72,4.65-10.37,10.37-10.37h48.18v4.74h-48.18c-3.1,0-5.63,2.52-5.63,5.63v78.61Z"/>
  <g>
    <rect class="cls-1" x="52.74" y="55.06" width="13.48" height="4.74"/>
    <rect class="cls-1" x="52.74" y="62.93" width="70.85" height="4.74"/>
  </g>
  <g>
    <rect class="cls-1" x="52.74" y="76.78" width="13.48" height="4.74"/>
    <rect class="cls-1" x="52.74" y="84.65" width="70.85" height="4.74"/>
  </g>
  <path class="cls-1" d="M116.67,125.84c-8.65,0-15.69-7.04-15.69-15.69s7.04-15.69,15.69-15.69,15.69,7.04,15.69,15.69c0,2.31-.49,4.54-1.47,6.63l-4.3-2.01c.68-1.45,1.02-3.01,1.02-4.62,0-6.04-4.91-10.95-10.95-10.95s-10.95,4.91-10.95,10.95,4.91,10.95,10.95,10.95c1.62,0,3.17-.34,4.62-1.02l2.01,4.29c-2.08.97-4.31,1.47-6.63,1.47Z"/>
  <path class="cls-1" d="M122.32,115.8l-3.35-3.35c1.26-1.27,1.26-3.33,0-4.59l3.35-3.35c3.11,3.11,3.11,8.18,0,11.29Z"/>
  <path class="cls-1" d="M111.02,115.8c-1.51-1.51-2.34-3.51-2.34-5.65s.83-4.14,2.34-5.65l3.35,3.35c-.61.61-.95,1.43-.95,2.29s.34,1.68.95,2.29l-3.35,3.35Z"/>
  <path class="cls-1" d="M77.6,142.19H17.27c-4.34,0-7.87-3.53-7.87-7.87v-32.04c0-4.34,3.53-7.87,7.87-7.87h1.9v4.74h-1.9c-1.73,0-3.13,1.4-3.13,3.13v32.04c0,1.72,1.4,3.13,3.13,3.13h60.33c1.72,0,3.13-1.4,3.13-3.13v-32.04c0-1.72-1.4-3.13-3.13-3.13H28.3v-4.74h49.3c4.34,0,7.87,3.53,7.87,7.87v32.04c0,4.34-3.53,7.87-7.87,7.87Z"/>
  <path class="cls-1" d="M65.9,134.49h-6.48c-2.88,0-5.23-2.35-5.23-5.23v-2.48h-2.48c-2.88,0-5.23-2.35-5.23-5.23v-6.48c0-2.88,2.35-5.23,5.23-5.23h2.48v-2.48c0-2.88,2.35-5.23,5.23-5.23h6.48c2.88,0,5.23,2.35,5.23,5.23v2.48h2.48c2.88,0,5.23,2.35,5.23,5.23v6.48c0,2.88-2.35,5.23-5.23,5.23h-2.48v2.48c0,2.88-2.35,5.23-5.23,5.23ZM51.71,114.57c-.27,0-.49.22-.49.49v6.48c0,.27.22.49.49.49h7.22v7.22c0,.27.22.49.49.49h6.48c.27,0,.49-.22.49-.49v-7.22h7.22c.27,0,.49-.22.49-.49v-6.48c0-.27-.22-.49-.49-.49h-7.22v-7.22c0-.27-.22-.49-.49-.49h-6.48c-.27,0-.49.22-.49.49v7.22h-7.22Z"/>
  <g>
    <rect class="cls-1" x="21.83" y="107.01" width="15.82" height="4.74"/>
    <rect class="cls-1" x="21.83" y="115.93" width="15.82" height="4.74"/>
    <rect class="cls-1" x="21.83" y="124.85" width="15.82" height="4.74"/>
  </g>
  <g>
    <rect class="cls-1" x="83.58" y="29.73" width="4.74" height="22.94" transform="translate(-5.79 67.06) rotate(-41.35)"/>
    <rect class="cls-1" x="78.35" y="41.1" width="19.2" height="4.74" transform="translate(-6.79 68.95) rotate(-41.36)"/>
    <rect class="cls-1" x="73.22" y="32.55" width="4.74" height="11.08"/>
    <path class="cls-1" d="M73.22,34.93v-16.8h8.51c4.81,0,8.72,3.76,8.72,8.38s-3.91,8.38-8.72,8.38c-1.7,0-6.13.03-6.13.03h-2.38ZM77.96,22.87v7.29c1.34,0,2.91-.01,3.77-.01,2.16,0,3.98-1.67,3.98-3.64s-1.82-3.64-3.98-3.64h-3.77Z"/>
  </g>
</svg>