<?xml version="1.0" encoding="UTF-8"?>
<svg id="Capa_1" data-name="Capa 1" xmlns="http://www.w3.org/2000/svg" xmlns:xlink="http://www.w3.org/1999/xlink" viewBox="0 0 150 150">
  <defs>
    <style>
      .cls-1 {
        fill: none;
      }

      .cls-2 {
        clip-path: url(#clippath);
      }

      .cls-3 {
        fill: #002f87;
      }
    </style>
    <clipPath id="clippath">
      <rect class="cls-1" x="16.55" y="93.57" width="116.89" height="47.94"/>
    </clipPath>
  </defs>
  <g id="_2ca21532b0" data-name="2ca21532b0">
    <path class="cls-3" d="M111.28,77.9h-29.6l3.03,3.03v-.09l-3.03,3.03h29.6c-1.01-1.01-2.02-2.02-3.03-3.03v.09c0,3.9,6.06,3.91,6.06,0v-.09c0-1.64-1.39-3.03-3.03-3.03h-29.6c-1.64,0-3.03,1.39-3.03,3.03v.09c0,1.64,1.39,3.03,3.03,3.03h29.6c3.9,0,3.9-6.06,0-6.06Z"/>
    <g class="cls-2">
      <path class="cls-3" d="M51.55,99.91h34.88c4.06,0,8.12-.03,12.18,0,4.99.03,9.85,1.34,14.17,3.86,1.1.64,2.16,1.35,3.18,2.11.27.21.04.03,0,0,.12.09.24.19.36.29.24.19.47.39.7.59.54.47,1.06.95,1.57,1.45,1.96,1.93,3.08,3.35,4.46,5.61.67,1.1,1.27,2.24,1.81,3.41.05.1.34.79.19.42.12.29.23.58.34.87.24.64.46,1.28.66,1.93.86,2.78,1.21,4.85,1.31,7.56.12,3.09.03,6.2.03,9.29v1.05l3.03-3.03H24.12c-1.44,0-2.91-.09-4.35,0-.06,0-.12,0-.19,0l3.03,3.03v-7.2c0-3.43.14-6.19.95-9.33.26-1.01.58-2.02.94-3,.42-1.13.57-1.49,1.18-2.7.46-.92.97-1.82,1.52-2.69.27-.43.55-.86.85-1.28.37-.53.66-.91.81-1.11,2.82-3.47,5.59-5.83,9.42-7.86,3.99-2.12,8.66-3.24,13.27-3.26,3.9-.02,3.9-6.08,0-6.06-9.76.05-19.26,4.22-25.79,11.5-6.08,6.78-9.2,15.46-9.2,24.53v8.45c0,1.64,1.39,3.03,3.03,3.03h97.19c4.47,0,8.98.14,13.45,0h.19c1.64,0,3.03-1.39,3.03-3.03v-8.62c0-5.2-1.03-10.23-3.11-14.99-4.43-10.18-13.97-17.98-24.87-20.16-5.11-1.02-10.42-.72-15.61-.72h-22.87c-5.06,0-10.13-.14-15.19,0h-.25c-3.9,0-3.91,6.06,0,6.06h0Z"/>
    </g>
    <path class="cls-3" d="M44.58,59.26c.03-7.22,1.89-14.14,5.77-20.27.44-.7.91-1.38,1.4-2.05.38-.51.72-.95,1.34-1.68,1.12-1.3,2.33-2.53,3.63-3.65,1.21-1.05,2.03-1.66,3.59-2.64.72-.45,1.45-.86,2.2-1.25.35-.18.71-.36,1.06-.53.18-.09.36-.17.54-.25.15-.07.62-.27.23-.11,1.56-.64,3.18-1.15,4.83-1.52.78-.18,1.57-.32,2.37-.43-.47.07.5-.05.7-.07.51-.05,1.02-.08,1.53-.1.82-.03,1.64-.03,2.47,0,.41.02.82.04,1.22.08.2.02.41.03.61.06.02,0,.98.12.4.04,1.68.23,3.35.62,4.96,1.14.75.24,1.5.52,2.23.82-.49-.2.55.25.64.29.4.19.8.39,1.2.59,1.5.78,2.93,1.68,4.29,2.68.05.04.54.41.29.21-.25-.2.23.19.28.23.31.25.62.51.92.77.69.59,1.35,1.22,1.98,1.86.57.58,1.12,1.18,1.65,1.79.62.73.96,1.16,1.34,1.68,1.04,1.43,1.98,2.93,2.82,4.49.92,1.73,1.42,2.84,2.02,4.52,1.28,3.55,2.01,7.09,2.24,10.55.47,7.25-.95,14.4-4.26,20.59-1.74,3.25-3.4,5.54-5.92,8.07-.57.57-1.15,1.12-1.76,1.65-.76.66-1.23,1.04-1.73,1.41-1.36,1-2.8,1.89-4.3,2.66-.35.18-.71.35-1.07.52-.18.08-1.04.46-.64.29-.78.32-1.57.6-2.38.86-.8.26-1.62.48-2.45.66-.69.16-1.9.37-2.26.42-2.99.39-6.57.21-9.39-.42-1.65-.37-3.27-.88-4.83-1.52.4.17-.46-.21-.64-.29-.36-.17-.72-.34-1.07-.52-.79-.41-1.57-.85-2.33-1.32-.67-.42-1.33-.87-1.98-1.34-.5-.37-.98-.74-1.73-1.4-1.3-1.13-2.5-2.36-3.62-3.67-.26-.31-.52-.63-.78-.95-.03-.04-.35-.45-.09-.12-.12-.16-.25-.33-.37-.5-.55-.75-1.07-1.53-1.56-2.32-.91-1.47-1.73-3.01-2.44-4.59-.21-.47-.49-1.14-.78-1.95-.33-.92-.63-1.84-.9-2.78-.5-1.75-.88-3.54-1.14-5.35.06.39-.02-.16-.03-.2-.03-.28-.06-.56-.09-.84-.05-.45-.08-.9-.11-1.36-.07-.98-.09-1.95-.1-2.93-.02-3.9-6.07-3.91-6.06,0,.07,16.09,8.86,31.97,24.08,38.22,7.05,2.9,15.17,3.21,22.43.87,7.26-2.34,13.65-7.24,18.27-13.46,9.86-13.27,10.72-32.22,2.92-46.66-3.6-6.66-9.17-12.45-15.95-15.89-6.78-3.44-15.04-4.62-22.72-2.88-15.49,3.5-26.39,17.9-28.54,33.19-.31,2.2-.49,4.39-.5,6.61-.02,3.9,6.04,3.9,6.06,0h0Z"/>
    <path class="cls-3" d="M44.41,40.99c-2.99-.23-5.97-.47-8.96-.69-6.39-.46-11.86,4.32-12.63,10.6-.36,2.95-.51,5.96-.69,8.94-.4,6.65,4.69,12.06,11.17,12.64,3.22.29,6.46.49,9.69.74,2.01.15,3.39-2.06,2.92-3.84-2.16-8.15-1.63-16.71,1.43-24.57.59-1.52-.65-3.33-2.11-3.73-1.71-.47-3.13.58-3.73,2.12-3.42,8.81-3.84,18.67-1.42,27.79l2.92-3.84c-2.88-.22-5.76-.44-8.63-.66-.35-.03-.71-.05-1.06-.08-.35-.03-.45-.07-.15-.02-.31-.06-.61-.13-.92-.22,0,0-.94-.36-.43-.14-.37-.17-.71-.39-1.07-.6-.58-.33-1.37-1.24-1.8-1.98,0,0-.45-.89-.23-.38-.12-.28-.22-.58-.3-.88-.08-.29-.16-.61-.21-.91.08.48-.03-.66-.03-.78,0-2.85.4-5.75.62-8.59.12-1.52.69-2.91,1.85-4.03,1.27-1.22,2.72-1.67,4.72-1.54,3.02.19,6.04.46,9.06.69,1.63.13,3.03-1.48,3.03-3.03,0-1.74-1.39-2.9-3.03-3.03h0Z"/>
    <path class="cls-3" d="M127.87,59.87c-.13-1.77-.26-3.54-.4-5.3-.18-2.36-.22-4.75-1.14-6.97-1.47-3.51-4.62-6.3-8.4-7.07-2.11-.43-4.17-.17-6.29,0-2.12.16-4.04.31-6.06.46-1.76.14-3.69,1.86-2.92,3.84,3.05,7.85,3.58,16.41,1.42,24.56-.47,1.78.92,3.99,2.92,3.84,3.15-.24,6.31-.47,9.46-.72,2.9-.24,5.52-1.22,7.68-3.23,2.56-2.37,3.92-5.94,3.72-9.4-.09-1.63-1.33-3.03-3.03-3.03-1.57,0-3.12,1.39-3.03,3.03.13,2.31-.61,4.18-2.34,5.46.11-.08-.57.36-.71.43-.09.05-.85.4-.39.21-.29.12-.59.21-.89.29-.05.01-.94.2-.44.13-.41.06-.83.07-1.24.1-2.93.22-5.85.45-8.78.67l2.92,3.84c2.41-9.12,2-18.98-1.42-27.79l-2.92,3.84c3.06-.24,6.11-.52,9.17-.71.32-.02.64-.03.96-.02.21,0,.42.02.63.04-.16-.02-.43-.11.12.04.93.26,1.04.25,1.69.61.31.17.61.36.89.57-.36-.28.33.32.42.41s.67.74.42.42c.28.36.51.77.73,1.17.29.53.54,1.51.59,2.15.06.79.12,1.58.18,2.38.14,1.92.29,3.83.43,5.74.12,1.63,1.3,3.03,3.03,3.03,1.54,0,3.15-1.39,3.03-3.03h0Z"/>
    <path class="cls-3" d="M71.35,79.86c-.02.4-.02-.02.02-.13-.07.17-.26.27.07-.11-.16.18.11-.06.09-.05.39-.19-.33,0,.12-.03.36-.03.03,0-.03.01.07,0,.13,0,.2,0,.91.01,1.81,0,2.72,0h3.11c.24,0,.47,0,.71,0-.18,0-.11-.09.15.03-.41-.18.04.01.1.07-.37-.38.14.31.02.04,0,.02.13.1.08.35.06-.29-.05-.09-.05.09,0,.53.01,1.05,0,1.58,0,.35.04-.33.01.11,0,.14,0,.14-.09.24.01-.02-.34.19-.07.07-.12.05-.53.04-.12.03h-.07c-1.87.06-3.76,0-5.64,0-.33,0-.66,0-.99,0h-.06c.4.02,0,.03-.13-.03.22.09.18.21-.1-.07.25.25-.03,0-.07-.1.2.45-.03-.14-.03-.13.04.55.08-.4.03-.06-.03.2.02-.3.02-.36.02-.51,0-1.02,0-1.53,0-3.9-6.06-3.91-6.06,0,0,1.72-.09,3.44.77,5.01,1.15,2.13,3.34,3.29,5.72,3.33,2.24.04,4.52.1,6.76,0,2.88-.14,5.49-2.17,6.02-5.08.29-1.57.32-3.63-.14-5.15-.81-2.71-3.31-4.38-6.06-4.48-1.12-.04-2.24,0-3.36,0s-2.26-.04-3.38,0c-3.57.14-6.16,2.83-6.33,6.37-.08,1.64,1.45,3.03,3.03,3.03,1.7,0,2.95-1.39,3.03-3.03h0Z"/>
    <path class="cls-3" d="M117.86,42.48c-4.48-14.73-15.46-27.33-30.32-32.08-14.7-4.71-30.8-.46-41.94,10.02-6.36,5.98-10.91,13.73-13.45,22.07-.58,1.89,1,3.84,2.92,3.84h.25c1.36,0,2.53-.95,2.92-2.22,1.97-6.43,5.4-12.55,10-17.4,2.38-2.51,4.6-4.36,7.33-6.12,2.9-1.86,5.48-3.09,8.53-4.07,1.62-.52,3.27-.93,4.94-1.23.42-.07.84-.14,1.27-.2-.46.07.71-.08.8-.09.86-.09,1.73-.15,2.6-.18,1.74-.06,3.49,0,5.23.18.98.1.87.09,1.91.27.89.16,1.77.34,2.65.56,6.28,1.57,11.95,4.78,16.59,9.18,5.55,5.25,9.48,11.86,11.7,19.1.39,1.28,1.56,2.22,2.92,2.22h.25c3.9,0,3.9-6.06,0-6.06h-.25l2.92,2.22c-4.47-14.59-15.36-27.09-30.09-31.82-14.73-4.73-30.65-.49-41.76,9.93-6.32,5.93-10.84,13.62-13.37,21.88.97-.74,1.95-1.48,2.92-2.22h-.25l2.92,3.84c1.96-6.44,5.38-12.59,9.97-17.46,1.17-1.24,2.41-2.42,3.71-3.52,1.22-1.03,2.2-1.74,3.73-2.73,1.42-.91,2.89-1.73,4.41-2.46,1.43-.68,2.52-1.12,4.27-1.68,1.62-.52,3.27-.93,4.95-1.23.98-.17,1.09-.19,1.91-.28.92-.1,1.84-.16,2.76-.2,1.75-.06,3.5,0,5.23.18.96.1.9.09,1.91.27.89.16,1.78.34,2.66.56,6.35,1.58,12.05,4.81,16.76,9.26,5.6,5.3,9.55,11.97,11.78,19.28.48,1.57,2.12,2.56,3.72,2.12,1.61-.44,2.59-2.16,2.12-3.73h0Z"/>
    <path class="cls-3" d="M112.59,68.65c-.88,3.71-2.15,7.28-3.89,10.67-1.03,2.01.23,4.56,2.62,4.56h.27c1.02,0,2.14-.57,2.62-1.5,1.96-3.85,3.48-7.91,4.47-12.12.45-1.91-.89-3.84-2.92-3.84h-.25c-3.9,0-3.9,6.06,0,6.06h.25l-2.92-3.84c-.88,3.71-2.13,7.28-3.86,10.67l2.62-1.5h-.27c.87,1.52,1.74,3.04,2.62,4.56,1.98-3.85,3.5-7.91,4.5-12.12.38-1.59-.5-3.28-2.11-3.73-1.62-.44-3.35.52-3.72,2.12h0Z"/>
  </g>
</svg>