<?xml version="1.0" encoding="UTF-8"?>
<svg id="Capa_1" data-name="Capa 1" xmlns="http://www.w3.org/2000/svg" viewBox="0 0 150 150">
  <defs>
    <style>
      .cls-1, .cls-2 {
        fill: #002f87;
        stroke: #fff;
        stroke-miterlimit: 10;
        stroke-width: .02px;
      }

      .cls-2 {
        fill-rule: evenodd;
      }
    </style>
  </defs>
  <path class="cls-1" d="M74.38,68.87l-30.43,10.59c-.77.26-1.29.98-1.3,1.8v11.49c-.03,2.59,3.87,2.59,3.84,0v-10.13l28.51-9.92,28.53,9.92v10.13c-.11,2.66,3.94,2.66,3.82,0v-11.49c0-.81-.51-1.54-1.28-1.8l-30.42-10.59c-.53-.18-.75-.18-1.26,0h0Z"/>
  <path class="cls-2" d="M70.59,12.49c10.23-2.42,20.45,3.81,22.89,13.92,2.44,10.11-3.83,20.23-14.06,22.65-10.23,2.41-20.45-3.81-22.89-13.92-2.45-10.11,3.83-20.23,14.06-22.65h0ZM69.7,8.78c-12.23,2.89-19.82,15.1-16.89,27.24,2.93,12.14,15.28,19.64,27.51,16.76,12.23-2.89,19.81-15.1,16.88-27.24-2.93-12.14-15.28-19.64-27.5-16.76h0Z"/>
  <path class="cls-1" d="M55.73,62.12h38.54c5.13,0,8.44.9,11.16,2.88,2.72,1.98,5,5.26,7.49,10.4l11.62,24c1.61,3.33,1.98,5.86,1.45,7.64-.53,1.79-1.94,3.26-5.07,4.47l-12.27,4.77c-2.02.79-3.53.58-4.79-.1-1.25-.68-2.26-1.93-2.78-3.43-1.05-3.01-.39-6.6,3.72-8.36,3.65-1.57,10.02-4.15,10.02-4.15,2.62-.83,1.03-4.76-1.43-3.54,0,0-6.35,2.58-10.09,4.19-5.83,2.5-7.44,8.53-5.82,13.13.21.61.49,1.2.81,1.76-4.88,9.33-13.04,16.26-23.28,21.85-10.23-5.58-18.39-12.52-23.28-21.85.33-.56.6-1.15.82-1.76,1.62-4.6.01-10.63-5.83-13.13-3.73-1.61-10.09-4.19-10.09-4.19-2.47-1.22-4.05,2.7-1.43,3.54,0,0,6.35,2.58,10.01,4.15,4.11,1.76,4.78,5.36,3.72,8.36-.53,1.5-1.54,2.76-2.79,3.43-1.25.68-2.77.88-4.79.1l-12.26-4.77c-3.13-1.21-4.55-2.68-5.08-4.47-.53-1.78-.16-4.32,1.45-7.64l11.64-24c2.49-5.14,4.76-8.42,7.48-10.4,2.73-1.98,6.03-2.88,11.16-2.88h0ZM55.73,58.31c-5.58,0-9.9,1.03-13.41,3.59-3.51,2.56-6.07,6.45-8.67,11.83l-11.62,24c-1.84,3.79-2.62,7.28-1.7,10.4.93,3.12,3.57,5.48,7.37,6.95l12.26,4.77c2.92,1.13,5.76.89,7.98-.3.38-.2.74-.45,1.08-.7,5.56,9.83,14.38,17.11,25.08,22.77.56.3,1.24.3,1.79,0,10.7-5.66,19.53-12.94,25.08-22.77.35.26.7.5,1.09.7,2.21,1.19,5.07,1.43,7.98.3l12.27-4.77c3.8-1.48,6.43-3.83,7.36-6.95.92-3.12.16-6.61-1.69-10.4l-11.62-24c-2.61-5.38-5.17-9.27-8.68-11.83-3.5-2.56-7.82-3.59-13.4-3.59h-38.54Z"/>
  <path class="cls-2" d="M91.07,97.07l-19.78,19.95c-.13.13-.29.13-.42,0l-11.93-11.93,3.7-3.79,7.1,7.12c.75.74,1.96.74,2.7,0l14.67-14.68,3.95,3.34ZM87.28,89.71c-1.21.13-2.19.67-2.84,1.32l-13.33,13.33-5.75-5.74c-1.57-1.59-4.23-1.59-5.8,0l-3.33,3.38c-1.58,1.59-1.58,4.2,0,5.79l11.96,11.95c1.82,1.83,3.98,1.84,5.79.02l19.8-19.99c1.63-1.65,1.3-4.37-.02-5.77l-3.27-3.24c-.93-.91-2.16-1.17-3.21-1.05h0Z"/>
</svg>