<?xml version="1.0" encoding="UTF-8"?>
<svg id="Capa_1" data-name="Capa 1" xmlns="http://www.w3.org/2000/svg" viewBox="0 0 150 150">
  <defs>
    <style>
      .cls-1 {
        fill: #002f87;
      }
    </style>
  </defs>
  <path class="cls-1" d="M85.88,112.88h-28.28c-1.2,0-2.18.97-2.18,2.18s.97,2.18,2.18,2.18h28.28c1.2,0,2.18-.97,2.18-2.18s-.97-2.18-2.18-2.18Z"/>
  <g>
    <path class="cls-1" d="M27.15,41.1c0,1.2.97,2.18,2.18,2.18h60.9c1.2,0,2.18-.97,2.18-2.18s-.97-2.18-2.18-2.18H29.33c-1.2,0-2.18.97-2.18,2.18Z"/>
    <path class="cls-1" d="M31.5,69.37h8.7c1.2,0,2.18-.97,2.18-2.18v-8.7c0-1.2-.97-2.18-2.18-2.18h-8.7c-1.2,0-2.18.97-2.18,2.18v8.7c0,1.2.97,2.18,2.18,2.18ZM33.68,60.67h4.35v4.35h-4.35v-4.35Z"/>
    <path class="cls-1" d="M31.5,86.78h8.7c1.2,0,2.18-.97,2.18-2.18v-8.7c0-1.2-.97-2.18-2.18-2.18h-8.7c-1.2,0-2.18.97-2.18,2.18v8.7c0,1.2.97,2.18,2.18,2.18ZM33.68,78.07h4.35v4.35h-4.35v-4.35Z"/>
    <path class="cls-1" d="M31.5,104.18h8.7c1.2,0,2.18-.97,2.18-2.18v-8.7c0-1.2-.97-2.18-2.18-2.18h-8.7c-1.2,0-2.18.97-2.18,2.18v8.7c0,1.2.97,2.18,2.18,2.18ZM33.68,95.48h4.35v4.35h-4.35v-4.35Z"/>
    <path class="cls-1" d="M48.9,104.18h41.33c1.2,0,2.18-.97,2.18-2.18s-.97-2.18-2.18-2.18h-41.33c-1.2,0-2.18.97-2.18,2.18s.97,2.18,2.18,2.18Z"/>
    <path class="cls-1" d="M88.28,63.43c.92,10,4.71,18.27,11.26,24.58,2.74,2.63,5.86,4.83,9.26,6.52.61.3,1.32.3,1.93,0,3.41-1.69,6.55-3.89,9.3-6.53,6.58-6.31,10.38-14.58,11.3-24.59.08-.82-.32-1.62-1.03-2.05-4.69-2.89-12.5-7.69-19.37-11.9-.7-.43-1.58-.43-2.28,0l-19.36,11.92c-.7.43-1.1,1.23-1.03,2.05ZM109.81,53.86c6.03,3.7,12.6,7.73,17.06,10.48-1.02,8.33-4.33,15.23-9.84,20.52-2.17,2.07-4.61,3.85-7.25,5.27-2.63-1.42-5.06-3.19-7.21-5.26-5.49-5.28-8.79-12.18-9.81-20.51l17.05-10.5Z"/>
    <path class="cls-1" d="M107.63,80.25c.58,0,1.13-.23,1.54-.64l10.88-10.88c.85-.85.85-2.23,0-3.08s-2.23-.85-3.08,0l-9.34,9.34-2.81-2.81c-.85-.85-2.23-.85-3.08,0s-.85,2.23,0,3.08l4.35,4.35c.41.41.96.64,1.54.64Z"/>
    <path class="cls-1" d="M16.28,138.98h87.01c3.6,0,6.52-2.92,6.53-6.53v-28.28h.03c.22,0,.43-.03.64-.1.31-.09,7.61-2.4,14.95-9.18,6.76-6.25,14.81-17.64,14.81-36.4,0-.76-.39-1.46-1.03-1.85l-28.27-17.4c-.34-.21-.74-.32-1.14-.32v-15.23c0-3.6-2.92-6.52-6.53-6.53h-17.78c-.92-2.6-3.39-4.35-6.15-4.35h-6.9c-.92-2.61-3.39-4.35-6.15-4.35h-13.05c-2.76,0-5.23,1.75-6.15,4.35h-6.9c-2.76,0-5.23,1.75-6.15,4.35h-17.78c-3.6,0-6.52,2.92-6.53,6.53v108.76c0,3.6,2.92,6.52,6.53,6.53ZM109.8,43.65l26.08,16.06c-.26,13.17-4.71,23.89-13.26,31.87-3.72,3.5-8.07,6.26-12.82,8.14-4.69-1.85-8.99-4.57-12.68-8.01-8.64-7.99-13.15-18.75-13.41-32l26.08-16.06ZM85.88,21.52h17.4c1.2,0,2.17.97,2.18,2.18v17.52l-4.35,2.68v-15.85c0-1.2-.97-2.18-2.18-2.18h-13.05v-4.35ZM38.03,19.35c0-1.2.97-2.17,2.18-2.18h8.7c1.2,0,2.18-.97,2.18-2.18,0-1.2.97-2.17,2.18-2.18h13.05c1.2,0,2.17.97,2.18,2.18,0,1.2.97,2.18,2.18,2.18h8.7c1.2,0,2.17.97,2.18,2.18v10.88h-43.5v-10.88ZM35.85,34.57h47.85c1.2,0,2.18-.97,2.18-2.18v-2.18h10.88v16.35l-4.41,2.72c-.24-.98-1.11-1.66-2.11-1.66H29.33c-1.2,0-2.18.97-2.18,2.18s.97,2.18,2.18,2.18h58.65l-7.07,4.35h-32.01c-1.2,0-2.18.97-2.18,2.18s.97,2.18,2.18,2.18h30.49c.05,1.5.15,2.95.3,4.35h-30.79c-1.2,0-2.18.97-2.18,2.18s.97,2.18,2.18,2.18h31.44c.29,1.51.62,2.96,1.02,4.35h-32.45c-1.2,0-2.18.97-2.18,2.18s.97,2.18,2.18,2.18h33.9c.57,1.48,1.22,2.93,1.94,4.35h-35.84c-1.2,0-2.18.97-2.18,2.18s.97,2.18,2.18,2.18h38.37c1.01,1.53,2.11,2.99,3.3,4.38-.11-.02-.23-.03-.34-.03h-41.33c-1.2,0-2.18.97-2.18,2.18s.97,2.18,2.18,2.18h41.33c1.2,0,2.18-.97,2.18-2.18,0-.05,0-.09,0-.14.6.62,1.19,1.2,1.77,1.73.87.8,1.73,1.54,2.59,2.22v28.81H22.8V30.22h10.88v2.18c0,1.2.97,2.18,2.18,2.18ZM14.1,23.7c0-1.2.97-2.17,2.18-2.18h17.4v4.35h-13.05c-1.2,0-2.18.97-2.18,2.18v100.06c0,1.2.97,2.18,2.18,2.18h78.3c1.2,0,2.18-.97,2.18-2.18v-27.91c1.4.88,2.86,1.68,4.35,2.39v29.87c0,1.2-.97,2.17-2.18,2.18H16.28c-1.2,0-2.17-.97-2.18-2.18V23.7Z"/>
  </g>
</svg>