<?xml version="1.0" encoding="UTF-8"?>
<svg id="Capa_1" data-name="Capa 1" xmlns="http://www.w3.org/2000/svg" viewBox="0 0 150 83.32">
  <defs>
    <style>
      .cls-1, .cls-2 {
        fill: #fff;
      }

      .cls-2 {
        font-family: MyriadPro-Regular, 'Myriad Pro';
        font-size: 19.27px;
      }

      .cls-3 {
        fill: #002f87;
        stroke: #fff;
        stroke-miterlimit: 10;
        stroke-width: .02px;
      }

      .cls-4 {
        letter-spacing: 0em;
      }

      .cls-5 {
        letter-spacing: .01em;
      }
    </style>
  </defs>
  <rect class="cls-3" x="1.75" y="6.28" width="146.49" height="70.75" rx="20" ry="20"/>
  <g>
    <text class="cls-2" transform="translate(47.54 39.65)"><tspan class="cls-5" x="0" y="0">M</tspan><tspan x="15.72" y="0">is</tspan><tspan class="cls-4" x="0" y="16.33">B</tspan><tspan x="10.52" y="16.33">eneficios</tspan></text>
    <g id="_08-Coupon" data-name=" 08-Coupon">
      <path class="cls-1" d="M35.98,45.22h-.99c-2.98,0-3.88-1.93-3.96-3.09l-.36-.29c-1.29-1.06-1.29-2.78,0-3.84.19-.16.51-.16.7,0l3.32,2.74h1.28v.82h-1.49c-.13,0-.26-.04-.35-.12l-3.08-2.54c-.58.75-.45,1.74.31,2.37l.5.41c.09.08.15.18.15.29,0,.25.1,2.45,2.97,2.45h.99v.82Z"/>
      <path class="cls-1" d="M34.49,50.53c-.13,0-.26-.04-.35-.12l-2.48-2.04c-.09-.08-.15-.18-.15-.29v-1.63h.99v1.46l1.98,1.63,4.26-3.5-.64-.53c-.08-.07-.13-.15-.15-.25l-.97-8.37-2.26-1.12.51-.7,2.48,1.22c.13.07.22.18.24.31l.97,8.43.87.71c.19.16.19.42,0,.58l-4.96,4.08c-.09.08-.22.12-.35.12h0Z"/>
      <path class="cls-1" d="M35.98,52.57c-.13,0-.26-.04-.35-.12l-1.98-1.63c-.19-.16-.19-.42,0-.58l.5-.41.7.58-.15.12,1.28,1.06,5.25-4.32-1.28-1.06-.15.12-.7-.58.5-.41c.19-.16.51-.16.7,0l1.98,1.63c.19.16.19.42,0,.58l-5.95,4.9c-.09.08-.22.12-.35.12Z"/>
      <path class="cls-1" d="M41.93,52.57h-5.95v-.82h5.45v-4.49h.99v4.9c0,.23-.22.41-.5.41Z"/>
      <path class="cls-1" d="M34.99,46.85H11.2c-.27,0-.5-.18-.5-.41v-11.43c0-.23.22-.41.5-.41h23.79c.27,0,.5.18.5.41v6.12h-.99v-5.72H11.69v10.61h22.8v-1.22h.99v1.63c0,.23-.22.41-.5.41Z"/>
      <path class="cls-1" d="M32.01,45.22H14.17c-.27,0-.5-.18-.5-.41s-.22-.41-.5-.41-.5-.18-.5-.41v-6.53c0-.23.22-.41.5-.41s.5-.18.5-.41.22-.41.5-.41h17.84c.27,0,.5.18.5.41s.22.41.5.41.5.18.5.41v2.45h-.99v-2.11c-.42-.12-.76-.4-.91-.75H14.58c-.15.35-.48.62-.91.75v5.85c.42.12.76.4.91.75h17.02c.13-.3.39-.55.74-.69l.44.73c-.17.07-.28.21-.28.37,0,.23-.22.41-.5.41h0Z"/>
      <path class="cls-1" d="M18.63,35.01h.99v1.63h-.99v-1.63Z"/>
      <path class="cls-1" d="M18.63,36.65h.99v.82h-.99v-.82Z"/>
      <path class="cls-1" d="M18.63,37.87h.99v.82h-.99v-.82Z"/>
      <path class="cls-1" d="M18.63,39.1h.99v.82h-.99v-.82Z"/>
      <path class="cls-1" d="M18.63,40.32h.99v.82h-.99v-.82Z"/>
      <path class="cls-1" d="M18.63,41.55h.99v.82h-.99v-.82Z"/>
      <path class="cls-1" d="M18.63,42.77h.99v.82h-.99v-.82Z"/>
      <path class="cls-1" d="M18.63,44h.99v.82h-.99v-.82Z"/>
      <path class="cls-1" d="M18.63,44.81h.99v1.63h-.99v-1.63Z"/>
      <path class="cls-1" d="M29.04,40.32h-7.93c-.27,0-.5-.18-.5-.41v-1.63c0-.23.22-.41.5-.41h8.43v.82h-7.93v.82h7.43v.82Z"/>
      <path class="cls-1" d="M20.61,41.14h.99v.82h-.99v-.82Z"/>
      <path class="cls-1" d="M22.6,41.14h6.94v.82h-6.94v-.82Z"/>
      <path class="cls-1" d="M20.61,42.77h8.92v.82h-8.92v-.82Z"/>
      <path class="cls-1" d="M30.12,35.4l-13.62-4.35-2.03,4.12-.92-.31,2.21-4.49c.1-.21.39-.31.64-.23l14.08,4.49-.36.76Z"/>
      <path class="cls-1" d="M33.1,35.33l-8.94-6.27-3.18,3.12-.76-.53,3.5-3.43c.09-.08.21-.14.34-.15.13,0,.26.03.36.1l9.32,6.53-.64.62Z"/>
    </g>
  </g>
</svg>