<?xml version="1.0" encoding="UTF-8"?>
<svg id="Capa_1" data-name="Capa 1" xmlns="http://www.w3.org/2000/svg" viewBox="0 0 150 150">
  <defs>
    <style>
      .cls-1 {
        fill: #002f87;
        stroke: #fff;
        stroke-miterlimit: 10;
        stroke-width: .02px;
      }
    </style>
  </defs>
  <path class="cls-1" d="M128.29,129.72H21.71c-5.74,0-10.25-4.51-10.25-10.25V30.52c0-5.74,4.51-10.25,10.25-10.25h106.58c5.74,0,10.25,4.51,10.25,10.25v88.75c0,5.74-4.51,10.45-10.25,10.45h0ZM21.71,24.38c-3.48,0-6.15,2.66-6.15,6.15v88.95c0,3.48,2.66,6.15,6.15,6.15h106.58c3.48,0,6.15-2.87,6.15-6.35V30.52c0-3.48-2.66-6.15-6.15-6.15H21.71Z"/>
  <g>
    <path class="cls-1" d="M120.7,43.03c-3.48,0-6.15-2.66-6.15-6.15s2.66-6.15,6.15-6.15,6.15,2.66,6.15,6.15-2.66,6.15-6.15,6.15ZM120.7,34.83c-1.23,0-2.05.82-2.05,2.05s.82,2.05,2.05,2.05,2.05-.82,2.05-2.05-.82-2.05-2.05-2.05Z"/>
    <path class="cls-1" d="M103.08,43.03c-3.48,0-6.15-2.66-6.15-6.15s2.66-6.15,6.15-6.15,6.15,2.66,6.15,6.15-2.66,6.15-6.15,6.15ZM103.08,34.83c-1.23,0-2.05.82-2.05,2.05s.82,2.05,2.05,2.05,2.05-.82,2.05-2.05-.82-2.05-2.05-2.05Z"/>
    <path class="cls-1" d="M85.45,43.03c-3.48,0-6.15-2.66-6.15-6.15s2.66-6.15,6.15-6.15,6.15,2.66,6.15,6.15-2.66,6.15-6.15,6.15ZM85.45,34.83c-1.23,0-2.05.82-2.05,2.05s.82,2.05,2.05,2.05,2.05-.82,2.05-2.05-.82-2.05-2.05-2.05Z"/>
    <path class="cls-1" d="M68.44,38.93H26.43c-1.23,0-2.05-.82-2.05-2.05s.82-2.05,2.05-2.05h42.02c1.23,0,2.05.82,2.05,2.05s-.82,2.05-2.05,2.05Z"/>
    <path class="cls-1" d="M35.24,98.57h-.41c-1.02-.2-1.84-1.23-1.64-2.46l2.87-16.6c.2-1.02,1.23-1.84,2.46-1.64,1.02.2,1.84,1.23,1.64,2.46l-2.87,16.6c-.2,1.02-1.02,1.64-2.05,1.64h0Z"/>
    <path class="cls-1" d="M60.04,98.57c-1.02,0-1.84-.61-2.05-1.64l-2.87-16.6c-.2-1.02.61-2.25,1.64-2.46,1.23-.2,2.25.61,2.46,1.64l2.87,16.6c.2,1.02-.61,2.25-1.64,2.46h-.41Z"/>
    <path class="cls-1" d="M47.33,63.32c-5.74,0-10.25-4.51-10.25-10.04s4.51-10.04,10.25-10.04,10.25,4.51,10.25,10.04-4.51,10.04-10.25,10.04ZM47.33,47.33c-3.48,0-6.15,2.66-6.15,5.94s2.66,5.94,6.15,5.94,6.15-2.66,6.15-5.94-2.66-5.94-6.15-5.94Z"/>
    <path class="cls-1" d="M58.19,98.77h-21.52c-4.92,0-9.22-2.66-11.27-7.17-1.23-2.46-1.64-5.74-1.02-8.4l2.87-11.68c1.02-4.1,4.71-7.17,9.02-7.17.2,0,.41,0,.61.2,6.97,2.25,14.14,2.25,21.11,0,.2,0,.41-.2.61-.2,4.3,0,7.99,2.87,9.02,7.17l2.87,11.48c1.02,3.89,0,7.99-2.46,11.07-2.46,3.07-5.94,4.71-9.84,4.71h0ZM36.06,68.44c-2.25.2-4.1,1.64-4.71,3.89l-2.87,11.68c-.41,1.84-.2,4.1.61,5.74,1.43,3.07,4.3,4.71,7.58,4.71h21.52c2.66,0,4.92-1.23,6.56-3.28,1.64-2.05,2.25-4.92,1.64-7.58l-2.87-11.48c-.61-2.25-2.46-3.89-4.71-3.89-7.58,2.66-15.17,2.66-22.75.2h0Z"/>
    <path class="cls-1" d="M71.11,119.27H25.2c-1.23,0-2.05-.82-2.05-2.05v-12.3c0-1.23.82-2.05,2.05-2.05h45.91c1.23,0,2.05.82,2.05,2.05v12.3c0,1.23-.82,2.05-2.05,2.05h0ZM27.25,115.17h41.81v-8.2H27.25v8.2Z"/>
    <path class="cls-1" d="M122.55,55.32h-37.71c-1.23,0-2.05-.82-2.05-2.05s.82-2.05,2.05-2.05h37.71c1.23,0,2.05.82,2.05,2.05s-.82,2.05-2.05,2.05h0Z"/>
    <path class="cls-1" d="M122.55,65.78h-37.71c-1.23,0-2.05-.82-2.05-2.05s.82-2.05,2.05-2.05h37.71c1.23,0,2.05.82,2.05,2.05s-.82,2.05-2.05,2.05h0Z"/>
    <path class="cls-1" d="M122.55,76.23h-37.71c-1.23,0-2.05-.82-2.05-2.05s.82-2.05,2.05-2.05h37.71c1.23,0,2.05.82,2.05,2.05s-.82,2.05-2.05,2.05h0Z"/>
    <path class="cls-1" d="M122.55,86.89h-37.71c-1.23,0-2.05-.82-2.05-2.05s.82-2.05,2.05-2.05h37.71c1.23,0,2.05.82,2.05,2.05s-.82,2.05-2.05,2.05h0Z"/>
    <path class="cls-1" d="M122.55,97.34h-37.71c-1.23,0-2.05-.82-2.05-2.05s.82-2.05,2.05-2.05h37.71c1.23,0,2.05.82,2.05,2.05s-.82,2.05-2.05,2.05h0Z"/>
    <path class="cls-1" d="M122.55,107.79h-37.71c-1.23,0-2.05-.82-2.05-2.05s.82-2.05,2.05-2.05h37.71c1.23,0,2.05.82,2.05,2.05s-.82,2.05-2.05,2.05h0Z"/>
    <path class="cls-1" d="M122.55,118.25h-37.71c-1.23,0-2.05-.82-2.05-2.05s.82-2.05,2.05-2.05h37.71c1.23,0,2.05.82,2.05,2.05s-.82,2.05-2.05,2.05h0Z"/>
    <path class="cls-1" d="M32.78,113.12h-1.64c-1.23,0-2.05-.82-2.05-2.05s.82-2.05,2.05-2.05h1.64c1.23,0,2.05.82,2.05,2.05s-.82,2.05-2.05,2.05Z"/>
    <path class="cls-1" d="M39.95,113.12h-1.84c-1.23,0-2.05-.82-2.05-2.05s.82-2.05,2.05-2.05h1.84c1.23,0,2.05.82,2.05,2.05s-.82,2.05-2.05,2.05Z"/>
    <path class="cls-1" d="M46.92,113.12h-1.64c-1.23,0-2.05-.82-2.05-2.05s.82-2.05,2.05-2.05h1.64c1.23,0,2.05.82,2.05,2.05s-.82,2.05-2.05,2.05Z"/>
  </g>
</svg>