<?xml version="1.0" encoding="UTF-8"?>
<svg id="Capa_1" data-name="Capa 1" xmlns="http://www.w3.org/2000/svg" viewBox="0 0 150 150">
  <defs>
    <style>
      .cls-1 {
        fill: #002f87;
      }
    </style>
  </defs>
  <path class="cls-1" d="M93.4,26.44c-1.3-9.09-9.21-15.94-18.4-15.94-5.91,0-11.53,2.85-15.02,7.63-.71.98-.5,2.34.48,3.06.97.71,2.34.5,3.05-.48,2.67-3.66,6.97-5.84,11.49-5.84,7.03,0,13.08,5.24,14.07,12.19.16,1.09,1.09,1.88,2.16,1.88.1,0,.21,0,.31-.02,1.2-.17,2.03-1.28,1.86-2.47Z"/>
  <path class="cls-1" d="M124.98,50.91l-6.56-10.93c-.39-.66-1.11-1.06-1.88-1.06h-6.29c-1.21,0-2.19.98-2.19,2.19s.98,2.19,2.19,2.19h5.05l3.94,6.56H30.75l3.94-6.56h2.32c1.21,0,2.19-.98,2.19-2.19s-.98-2.19-2.19-2.19h-3.55c-.77,0-1.48.4-1.88,1.06l-6.56,10.93c-.41.68-.42,1.52-.03,2.2s1.11,1.11,1.9,1.11h96.21c.79,0,1.51-.42,1.9-1.11s.38-1.53-.03-2.2Z"/>
  <path class="cls-1" d="M114.08,30.75c-.31-.49-.8-.84-1.36-.98l-29.81-6.97c-.56-.13-1.16-.03-1.65.27-.49.31-.84.8-.98,1.36l-2.25,9.61c-.28,1.18.45,2.35,1.63,2.63,1.18.28,2.35-.45,2.63-1.63l1.75-7.48,25.55,5.98-4.01,17.17c-.28,1.18.45,2.35,1.63,2.63.17.04.34.06.5.06.99,0,1.89-.68,2.13-1.69l4.51-19.29c.13-.56.04-1.16-.27-1.65Z"/>
  <path class="cls-1" d="M76.16,35.92l-1.99-16.85c-.07-.58-.36-1.1-.82-1.46-.46-.36-1.03-.52-1.61-.45l-36.57,4.32c-1.2.14-2.06,1.23-1.91,2.43l3.32,28.11c.13,1.11,1.08,1.93,2.17,1.93.09,0,.17,0,.26-.02,1.2-.14,2.06-1.23,1.91-2.43l-3.07-25.94,32.23-3.81,1.73,14.68c.14,1.2,1.22,2.05,2.43,1.92,1.2-.14,2.06-1.23,1.91-2.43Z"/>
  <path class="cls-1" d="M93.45,51.21l-4.34-18.05c-.14-.56-.49-1.05-.98-1.35-.49-.3-1.09-.39-1.65-.26l-35.23,8.47c-1.17.28-1.9,1.46-1.62,2.64l2.17,9.02c.28,1.18,1.46,1.9,2.64,1.62,1.17-.28,1.9-1.46,1.62-2.64l-1.66-6.9,30.97-7.45,3.83,15.92c.24,1,1.14,1.68,2.12,1.68.17,0,.34-.02.51-.06,1.17-.28,1.9-1.46,1.62-2.64Z"/>
  <path class="cls-1" d="M125.29,51.93c-.06-1.16-1.02-2.07-2.18-2.07H26.89c-1.16,0-2.12.91-2.18,2.07l-4.37,85.28c-.03.6.19,1.18.6,1.62.41.43.99.68,1.59.68h104.96c.6,0,1.17-.25,1.59-.68.41-.43.63-1.02.6-1.62l-4.37-85.28ZM24.82,135.13l4.15-80.91h92.06l4.15,80.91H24.82Z"/>
  <path class="cls-1" d="M91.4,58.6c-3.62,0-6.56,2.94-6.56,6.56s2.94,6.56,6.56,6.56,6.56-2.94,6.56-6.56-2.94-6.56-6.56-6.56ZM91.4,67.35c-1.21,0-2.19-.98-2.19-2.19s.98-2.19,2.19-2.19,2.19.98,2.19,2.19-.98,2.19-2.19,2.19Z"/>
  <path class="cls-1" d="M58.6,58.6c-3.62,0-6.56,2.94-6.56,6.56s2.94,6.56,6.56,6.56,6.56-2.94,6.56-6.56-2.94-6.56-6.56-6.56ZM58.6,67.35c-1.21,0-2.19-.98-2.19-2.19s.98-2.19,2.19-2.19,2.19.98,2.19,2.19-.98,2.19-2.19,2.19Z"/>
  <path class="cls-1" d="M91.4,65.16h-.17c-1.21,0-2.19.98-2.19,2.19,0,.3.06.58.17.84v11.18c0,7.84-6.38,14.21-14.21,14.21s-14.21-6.38-14.21-14.21v-12.03c0-1.21-.98-2.19-2.19-2.19s-2.19.98-2.19,2.19v12.03c0,10.25,8.34,18.59,18.59,18.59s18.59-8.34,18.59-18.59v-12.03c0-1.21-.98-2.19-2.19-2.19Z"/>
</svg>