<?xml version="1.0" encoding="UTF-8"?>
<svg id="Capa_1" data-name="Capa 1" xmlns="http://www.w3.org/2000/svg" viewBox="0 0 150 150">
  <defs>
    <style>
      .cls-1 {
        fill: #002f87;
      }
    </style>
  </defs>
  <path class="cls-1" d="M100.8,80.94h-31.06c-1.1,0-2-.89-2-2s.89-2,2-2h31.06c1.1,0,2,.89,2,2s-.89,2-2,2Z"/>
  <path class="cls-1" d="M87.98,92.16h-18.23c-1.1,0-2-.89-2-2s.89-2,2-2h18.23c1.1,0,2,.89,2,2s-.89,2-2,2Z"/>
  <path class="cls-1" d="M124.4,110.49h-32.38c-1.69,0-3.06-1.37-3.06-3.06v-7.99c0-1.1.89-2,2-2s2,.89,2,2v7.06h30.52v-7.21c0-1.1.89-2,2-2s2,.89,2,2v8.15c0,1.69-1.37,3.06-3.06,3.06Z"/>
  <path class="cls-1" d="M127.22,100.77h-8.36c-1.1,0-2-.89-2-2s.89-2,2-2h7.43v-4.68c0-1.96-1.6-3.56-3.57-3.56h-29.03c-1.97,0-3.56,1.6-3.56,3.56v4.68h19.43c1.1,0,2,.89,2,2s-.89,2-2,2h-20.36c-1.69,0-3.06-1.37-3.06-3.06v-5.61c0-4.16,3.39-7.55,7.55-7.55h29.03c4.17,0,7.56,3.39,7.56,7.55v5.61c0,1.69-1.37,3.06-3.06,3.06Z"/>
  <path class="cls-1" d="M115.11,87.95c-1.1,0-2-.89-2-2v-9.42c0-3.59.74-7.08,2.21-10.36,1.23-2.77,1.86-5.71,1.86-8.74v-1.49c0-4.94-4.02-8.97-8.97-8.97s-8.97,4.02-8.97,8.97v1.49c0,3.03.62,5.97,1.86,8.74,1.46,3.28,2.21,6.76,2.21,10.36v9.42c0,1.1-.89,2-2,2s-2-.89-2-2v-9.42c0-3.03-.62-5.97-1.86-8.74-1.46-3.28-2.2-6.77-2.2-10.36v-1.49c0-7.14,5.81-12.96,12.96-12.96s12.96,5.81,12.96,12.96v1.49c0,3.59-.74,7.07-2.21,10.36-1.23,2.77-1.86,5.71-1.86,8.74v9.42c0,1.1-.89,2-2,2Z"/>
  <path class="cls-1" d="M116.06,71.89h-15c-1.1,0-2-.89-2-2s.89-2,2-2h15c1.1,0,2,.89,2,2s-.89,2-2,2Z"/>
  <path class="cls-1" d="M45,94.14s-.01,0-.02,0c-.54,0-1.05-.22-1.42-.61l-5.14-5.33c-.77-.79-.74-2.06.05-2.82.79-.76,2.05-.74,2.82.05l3.73,3.87,7.65-7.65c.78-.78,2.04-.78,2.82,0,.78.78.78,2.04,0,2.82l-9.09,9.09c-.37.38-.88.59-1.41.59Z"/>
  <path class="cls-1" d="M46.97,103.21c-9.19,0-16.67-7.48-16.67-16.67s7.48-16.67,16.67-16.67,16.67,7.48,16.67,16.67-7.48,16.67-16.67,16.67ZM46.97,73.86c-7,0-12.68,5.69-12.68,12.68s5.69,12.68,12.68,12.68,12.68-5.69,12.68-12.68-5.69-12.68-12.68-12.68Z"/>
  <path class="cls-1" d="M88.13,58.92h-49.19c-1.1,0-2-.89-2-2v-12.35c0-1.1.89-2,2-2h49.19c1.1,0,2,.89,2,2v12.35c0,1.1-.89,2-2,2ZM40.93,54.93h45.2v-8.36h-45.2v8.36Z"/>
  <path class="cls-1" d="M59.66,132.8c-.71,0-1.43-.14-2.12-.42-1.42-.58-2.5-1.75-2.95-3.22-.45-1.47-.22-3.05.64-4.33,1.71-2.56,4.21-4.47,7.11-5.45-.04-.13-.07-.27-.11-.4-.25-.83-.87-1.44-1.7-1.69-.83-.24-1.68-.06-2.34.51l-.46.39c-.83.72-2.09.63-2.81-.21-.72-.83-.63-2.09.21-2.81l.46-.4c1.67-1.44,3.94-1.94,6.06-1.32,2.12.62,3.77,2.25,4.41,4.37.05.17.1.35.14.52l3.2-.81c1.37-.35,2.83.26,3.54,1.49l1.29,2.2,2.63-4.43c.5-.85,1.39-1.36,2.37-1.38.02,0,.04,0,.05,0,.96,0,1.84.48,2.37,1.29l1.85,2.87c.67,1.04,1.71,1.73,2.92,1.96,1.22.22,2.43-.06,3.43-.78l.89-.65c.89-.65,2.14-.46,2.79.43.65.89.45,2.14-.43,2.79l-.89.65c-1.86,1.36-4.23,1.9-6.51,1.48-2.3-.43-4.27-1.75-5.54-3.71l-.83-1.28-2.07,3.49c-.65,1.08-1.85,1.76-3.04,1.72-1.26,0-2.39-.66-3.03-1.75l-1.38-2.37-3.1.79c-.03,2.72-.79,5.42-2.25,7.78-1.05,1.7-2.87,2.67-4.77,2.67ZM62.61,123.56c-1.64.76-3.05,1.96-4.07,3.49-.25.38-.19.75-.14.94.06.19.22.53.64.7.75.3,1.58.03,2-.65.85-1.37,1.38-2.9,1.57-4.47ZM78.28,118.88s0,0,0,0h0Z"/>
  <path class="cls-1" d="M29.63,31.06c-1.1,0-2-.89-2-2v-6.33c0-1.73,1.41-3.14,3.14-3.14h12.92c1.1,0,2,.89,2,2s-.89,2-2,2h-12.07v5.48c0,1.1-.89,2-2,2Z"/>
  <path class="cls-1" d="M112.12,135.17h-6.29c-1.1,0-2-.89-2-2s.89-2,2-2h5.43v-22.32c0-1.1.89-2,2-2s2,.89,2,2v23.17c0,1.73-1.41,3.14-3.14,3.14Z"/>
  <path class="cls-1" d="M113.27,47.9c-1.1,0-2-.89-2-2v-22.32h-8.32c-1.1,0-2-.89-2-2s.89-2,2-2h9.17c1.73,0,3.14,1.41,3.14,3.14v23.18c0,1.1-.89,2-2,2ZM112.12,23.58h.02-.02Z"/>
  <path class="cls-1" d="M93.64,23.58h-10.31c-1.1,0-2-.89-2-2s.89-2,2-2h10.31c1.1,0,2,.89,2,2s-.89,2-2,2Z"/>
  <path class="cls-1" d="M69.44,18.43c-1.1,0-2-.89-2-2v-1.62c0-2.15-1.75-3.91-3.91-3.91s-3.9,1.75-3.9,3.91v1.58c0,1.1-.89,2-2,2s-2-.89-2-2v-1.58c0-4.35,3.54-7.9,7.89-7.9s7.9,3.54,7.9,7.9v1.62c0,1.1-.89,2-2,2Z"/>
  <path class="cls-1" d="M21.72,40.46c-1.1,0-2-.89-2-2v-7.82c0-1.73,1.41-3.14,3.14-3.14h20.84c1.1,0,2,.89,2,2s-.89,2-2,2h-19.99v6.97c0,1.1-.89,2-2,2Z"/>
  <path class="cls-1" d="M104.21,143.08h-41.92c-1.1,0-2-.89-2-2s.89-2,2-2h41.07v-30.23c0-1.1.89-2,2-2s2,.89,2,2v31.08c0,1.73-1.41,3.14-3.14,3.14Z"/>
  <path class="cls-1" d="M52.98,143.08h-7.72c-1.96,0-3.8-.76-5.18-2.15l-18.22-18.24c-1.36-1.36-2.14-3.25-2.14-5.17V47.78c0-1.1.89-2,2-2s2,.89,2,2v69.74c0,.88.35,1.73.97,2.35l18.22,18.24c.63.63,1.46.98,2.35.98h7.72c1.1,0,2,.89,2,2s-.89,2-2,2Z"/>
  <path class="cls-1" d="M105.36,46.98c-1.1,0-2-.89-2-2v-13.48h-19.89c-1.1,0-2-.89-2-2s.89-2,2-2h20.75c1.73,0,3.14,1.41,3.14,3.14v14.34c0,1.1-.89,2-2,2ZM104.21,31.5h.02-.02Z"/>
  <path class="cls-1" d="M82.02,35.93h-36.96c-1.69,0-3.06-1.37-3.06-3.06v-12.07c0-3.3,2.68-5.98,5.99-5.98h31.11c3.3,0,5.99,2.68,5.99,5.98v12.07c0,1.69-1.37,3.06-3.06,3.06ZM45.98,31.94h35.1v-11.14c0-1.1-.89-1.99-2-1.99h-31.11c-1.1,0-2,.89-2,1.99v11.14Z"/>
  <path class="cls-1" d="M43.05,142.2c-1.1,0-2-.89-2-2v-18.49h-18.48c-1.1,0-2-.89-2-2s.89-2,2-2h20.48c1.1,0,2,.89,2,2v20.48c0,1.1-.89,2-2,2Z"/>
</svg>