<?xml version="1.0" encoding="UTF-8"?>
<svg id="Capa_1" data-name="Capa 1" xmlns="http://www.w3.org/2000/svg" viewBox="0 0 150 150">
  <defs>
    <style>
      .cls-1 {
        fill: #002f87;
      }
    </style>
  </defs>
  <path class="cls-1" d="M48.37,106.36h-3.88v-3.88h3.88v3.88ZM40.61,106.36h-3.88v-3.88h3.88v3.88ZM32.85,106.36h-3.88v-3.88h3.88v3.88Z"/>
  <g>
    <path class="cls-1" d="M131.21,135.04v-21.21h-3.88v5.7h-34.89v-21.45h34.89v11.88h3.88v-23.33c2.41-2.45,3.89-5.81,3.89-9.5v-4.12l-8.18-32.73h-19.18c-.97-8.53-5.21-16.33-11.97-21.83l-2.45,3.01c6.83,5.55,10.75,13.78,10.75,22.57,0,11.13-6.29,20.83-15.51,25.71v-15.36c4.9-.84,7.76-4.94,7.76-11.34,0-8.12-4.26-14.48-9.7-14.48s-9.7,6.36-9.7,14.48c0,6.4,2.86,10.51,7.76,11.34v17.06c-3.03,1.07-6.29,1.66-9.69,1.66s-6.66-.59-9.7-1.67v-19.53h.66c3.92,0,7.11-3.19,7.11-7.11v-14.23h-3.88v5.81h-3.88v-5.8h-3.88v5.8h-3.88v-5.81h-3.88v14.23c0,3.92,3.19,7.11,7.11,7.11h.65v17.82c-9.22-4.88-15.51-14.57-15.51-25.7,0-16.03,13.04-29.07,29.07-29.07,5.45,0,10.75,1.51,15.35,4.38l2.05-3.29c-5.21-3.25-11.23-4.97-17.4-4.97-16.9,0-30.87,12.79-32.74,29.19h-19.22l-8.18,32.73v4.12c0,3.7,1.49,7.05,3.89,9.5v48.42h-5.8v3.88h124.08v-3.88h-5.83ZM131.22,77.12c0,5.35-4.35,9.7-9.7,9.7s-9.7-4.35-9.7-9.7h-.05l-.21-1.93h19.65v1.93ZM123.89,44.15l6.79,27.16h-19.53l-2.97-27.16h15.72ZM105.6,56.26l1.65,15.05h-13.78c5.41-3.67,9.67-8.91,12.13-15.05ZM107.67,75.19l.27,2.45c-.27,5.11-4.51,9.18-9.68,9.18s-9.52-4.18-9.69-9.38v-2.24s19.1,0,19.1,0h0ZM80.81,43.04c0-5.01,2.39-10.6,5.82-10.6s5.82,5.59,5.82,10.6-1.96,7.63-5.82,7.63-5.82-2.57-5.82-7.63ZM75,76.98c3.37,0,6.62-.51,9.69-1.45v1.59s0,0,0,0c0,5.35-4.35,9.7-9.7,9.7s-9.4-4.02-9.68-9.15v-2.14c3.07.95,6.32,1.46,9.7,1.46h0ZM60.79,48.03c-1.78,0-3.23-1.45-3.23-3.23v-4.54h11.64v4.54c0,1.78-1.45,3.23-3.23,3.23h-5.17ZM63.36,84.15c2.38,3.94,6.71,6.55,11.62,6.55s9.26-2.64,11.64-6.59c2.38,3.94,6.7,6.59,11.64,6.59s9.26-2.64,11.64-6.59c2.38,3.94,6.7,6.59,11.64,6.59,2.07,0,4.04-.47,5.8-1.31v4.81H22.64v-4.81c1.76.84,3.73,1.31,5.8,1.31,4.94,0,9.28-2.66,11.65-6.62,2.37,3.96,6.71,6.62,11.65,6.62,4.91,0,9.24-2.61,11.62-6.55ZM42.05,76.94l.19-1.75h9.5v-3.88h-9.07l1.68-15.16c3.15,7.95,9.31,14.38,17.07,17.9v3.61c-.28,5.13-4.53,9.15-9.68,9.15s-9.7-4.35-9.7-9.7v-.18ZM26.08,44.15h15.71l-3.02,27.16h-19.48l6.79-27.16ZM18.74,77.12v-1.93h19.39v1.93c0,5.35-4.35,9.7-9.7,9.7s-9.7-4.35-9.7-9.7ZM57.55,135.04H22.64v-11.64h34.91v11.64ZM57.55,119.53H22.64v-21.45h34.91v21.45ZM88.54,135.04h-27.12v-36.96h27.12v36.96ZM127.33,135.04h-34.91v-11.64h34.91v11.64Z"/>
    <path class="cls-1" d="M69.17,111.78h3.88v7.76h-3.88v-7.76Z"/>
    <path class="cls-1" d="M76.92,111.78h3.88v7.76h-3.88v-7.76Z"/>
  </g>
</svg>