<?xml version="1.0" encoding="UTF-8"?>
<svg id="Capa_1" data-name="Capa 1" xmlns="http://www.w3.org/2000/svg" viewBox="0 0 150 150">
  <defs>
    <style>
      .cls-1 {
        fill: #002f87;
      }
    </style>
  </defs>
  <path class="cls-1" d="M120.97,113.92l-4.42,4.8c-1.09,1.19-1.69,2.73-1.69,4.33v13.8c0,1.17.96,2.13,2.13,2.13s2.13-.96,2.13-2.13v-13.8c0-.53.19-1.05.58-1.43l4.42-4.8c.79-.87.75-2.22-.13-3.01s-2.22-.75-3.01.13l-.02-.02Z"/>
  <path class="cls-1" d="M135.88,59.84c-1.56-1.41-3.67-2.11-5.78-1.9-3.75.38-6.7,3.78-6.7,7.74v18.56c-2.77-1.3-6.19-.81-8.49,1.45l-17.9,17.9c-3.63,3.63-5.61,8.45-5.61,13.57v19.69c0,1.17.96,2.13,2.13,2.13s2.13-.96,2.13-2.13v-19.69c0-3.99,1.56-7.72,4.37-10.54l17.9-17.9c1.26-1.24,3.28-1.24,4.52,0,.02.02.04.06.09.09.17.19.32.38.45.6.02.04.06.11.09.15.13.28.23.58.28.9v.04c.02.15.04.32.04.49,0,.85-.34,1.66-.94,2.26l-10.58,10.58c-.83.83-.83,2.18,0,3.01.43.43.96.62,1.51.62s1.09-.21,1.51-.62l10.58-10.58c1.41-1.41,2.2-3.28,2.2-5.29,0-.23-.04-.47-.06-.7,0-.13.06-.23.06-.36v-24.23c0-1.79,1.26-3.33,2.86-3.5.92-.09,1.81.19,2.5.81s1.05,1.45,1.05,2.39v29.35c0,3.24-1.22,6.34-3.41,8.68l-3.88,4.22c-.79.87-.75,2.22.13,3.01s2.22.75,3.01-.13l3.88-4.22c2.92-3.14,4.54-7.25,4.54-11.58v-29.35c0-2.11-.9-4.14-2.45-5.55l-.02.04Z"/>
  <path class="cls-1" d="M22.27,103.42c-2.2-2.35-3.39-5.44-3.39-8.68v-13.35c0-1.17-.96-2.13-2.13-2.13s-2.13.96-2.13,2.13v13.35c0,4.33,1.62,8.45,4.52,11.58l14.1,15.29c.36.41.58.92.58,1.43v13.8c0,1.17.96,2.13,2.13,2.13s2.13-.96,2.13-2.13v-13.8c0-1.6-.6-3.14-1.69-4.33l-14.1-15.29h-.02Z"/>
  <path class="cls-1" d="M55.93,103.59l-17.9-17.9c-2.28-2.26-5.72-2.75-8.47-1.45v-18.56c0-3.97-2.94-7.36-6.7-7.74-2.11-.21-4.22.47-5.78,1.9-1.56,1.43-2.45,3.43-2.45,5.55v7.47c0,1.17.96,2.13,2.13,2.13s2.13-.96,2.13-2.13v-7.47c0-.92.38-1.77,1.05-2.39.68-.62,1.56-.9,2.5-.81,1.6.17,2.86,1.69,2.86,3.5v24.23c0,.13.04.23.06.36-.02.23-.06.47-.06.7,0,2.01.77,3.86,2.2,5.27l10.58,10.58c.43.43.96.62,1.51.62s1.09-.21,1.51-.62c.83-.83.83-2.18,0-3.01l-10.58-10.58c-.6-.6-.94-1.41-.94-2.26,0-.17.02-.32.04-.49v-.04c.04-.32.15-.62.28-.9.02-.06.06-.11.09-.15.11-.21.26-.41.43-.6.04-.04.06-.09.09-.11,1.26-1.22,3.28-1.22,4.52,0l17.9,17.9c2.82,2.82,4.37,6.57,4.37,10.54v19.69c0,1.17.96,2.13,2.13,2.13s2.13-.96,2.13-2.13v-19.69c0-5.12-2.01-9.94-5.61-13.57l-.02.02Z"/>
  <path class="cls-1" d="M76.47,81.39c-.36,0-.7-.09-1.05-.28-1.09-.6-26.68-15.04-26.68-32.08,0-8.04,7.15-14.57,15.91-14.57,4.88,0,9.02,2.71,11.82,5.78,2.79-3.09,6.93-5.78,11.82-5.78,8.77,0,15.91,6.53,15.91,14.57,0,5.5-2.67,11.28-7.89,17.19-.79.87-2.13.96-3.01.17s-.96-2.13-.17-3.01c4.52-5.08,6.83-9.92,6.83-14.36,0-5.67-5.23-10.3-11.65-10.3-4.37,0-8.15,3.31-10.05,6.16-.79,1.19-2.75,1.19-3.54,0-1.9-2.84-5.67-6.16-10.05-6.16-6.42,0-11.65,4.63-11.65,10.3,0,12.82,18.79,24.93,23.46,27.75,1.94-1.17,6.31-3.92,10.73-7.68.9-.77,2.24-.64,3.01.26s.64,2.24-.26,3.01c-6.25,5.27-12.2,8.62-12.46,8.75-.32.17-.68.28-1.05.28Z"/>
  <path class="cls-1" d="M76.47,96.32c-23.53,0-42.66-19.13-42.66-42.66,0-10.05,3.56-19.77,10.03-27.43.77-.9,2.11-1.02,3.01-.26.9.77,1,2.11.26,3.01-5.8,6.87-9,15.63-9,24.66,0,21.18,17.21,38.39,38.39,38.39s38.39-17.21,38.39-38.39S97.65,15.27,76.47,15.27c-8.51,0-16.87,2.88-23.55,8.11-.92.73-2.26.55-2.99-.36-.73-.94-.55-2.26.36-2.99,7.42-5.8,16.72-9,26.19-9,23.53,0,42.66,19.13,42.66,42.66s-19.13,42.66-42.66,42.66l-.02-.02Z"/>
</svg>