<?xml version="1.0" encoding="UTF-8"?>
<svg id="Capa_1" data-name="Capa 1" xmlns="http://www.w3.org/2000/svg" viewBox="0 0 150 150">
  <defs>
    <style>
      .cls-1 {
        fill: #002f87;
      }
    </style>
  </defs>
  <path class="cls-1" d="M123.29,93.44l-23.93,10.11c.04-.3.09-.6.09-.92,0-4.65-3.78-8.43-8.43-8.43h-17.24c-.7,0-1.39-.15-2.03-.45l-14.61-6.61c-2.28-1.02-4.82-1.58-7.32-1.58h-11.9v4.27h11.9c1.9,0,3.82.41,5.57,1.19l14.61,6.61c1.19.53,2.47.81,3.8.81h17.24c2.3,0,4.16,1.88,4.16,4.16s-1.88,4.16-4.16,4.16h-22.33v4.27h22.31c1.47,0,2.84-.41,4.03-1.07v.02l29.88-12.65c2.47-1.05,5.18-1.02,7.64.04,1.88.83,3.41,2.18,4.44,3.92l-52.75,27.99c-4.03,2.13-8.83,2.56-13.18,1.17l-25.81-8.3-7.36-.11v4.27h6.38l25.49,8.19c2.11.68,4.29,1,6.48,1,3.46,0,6.91-.83,9.98-2.47l56.21-29.78-.62-1.75c-1.3-3.63-3.99-6.48-7.53-8.04-3.54-1.51-7.44-1.56-11.01-.04h0Z"/>
  <path class="cls-1" d="M33.3,129.68v-45.29c0-2.35-1.92-4.27-4.27-4.27H7.55v4.27h21.48v45.31H7.55v4.27h21.48c2.35-.02,4.27-1.94,4.27-4.29h0Z"/>
  <path class="cls-1" d="M23.42,123.05c0,1.64-1.34,2.99-2.99,2.99s-3.01-1.34-3.01-2.99,1.34-3.01,3.01-3.01,2.99,1.34,2.99,3.01Z"/>
  <path class="cls-1" d="M58.02,65.24l2.3,1.71,15.87-8.79,14.36,8.64,1.24.73,2.3-1.66-3.46-17.79,12.69-11.01,1.02-.98-.9-2.65-17.96-2.22-6.53-15.44-.6-1.28-1.37-.02h-1.45l-7.66,16.45-16.72,1.41-1.43.17-.85,2.67,13.25,12.35-4.12,17.73ZM56.21,36.19l13.27-1.15,1.26-.15,6.12-13.14,5.18,12.22.53,1.17,14.42,1.77-9.98,8.66-1,.85,2.77,14.29-11.43-6.89-1.09-.58-12.65,7.02,2.97-12.8.36-1.32-10.73-9.96Z"/>
  <path class="cls-1" d="M29.97,57.37l-3.09,13.29-.43,1.54,2.41,1.77,13.29-7.36,11.73,7.04,1.32.83,2.37-1.73-2.9-14.91,3.09-2.67-2.79-3.22-4.12,3.56-.62.73v.85l2.01,10.6-8.66-5.23-.45-.43-1.81-.04-.43.43-8.85,4.91,2.39-10.37v-1.26l-8.3-7.72,10.15-.9.98-.02.9-.9,4.54-9.77,4.1,9.66.66,1.26h1.19l5.14.64.53-4.24-4.12-.49-5.42-12.8-.73-1.37-2.94.23-.41,1.26-5.76,12.39-13.57,1.17-1.69.09-.9,3.11,1.17.77,9.98,9.28Z"/>
  <path class="cls-1" d="M100.09,43.23l.38,4.24,4.12-.38.96-.04.9-.9,4.54-9.77,3.9,9.19.04,1.73h2.01l10.17,1.26-7.91,6.87-.7.75v.92l2.03,10.58-8.68-5.2-.45-.45-1.88.02-.38.41-8.81,4.88,2.41-10.37-.02-1.26-5.46-5.1-2.92,3.11,3.9,3.65-3.07,13.29-.43,1.43,2.33,1.92,13.37-7.4,11.75,7.06,1.32.81,2.33-1.75-2.9-14.89,10.26-8.9c.7-.55,1-1.49.77-2.35l-.49-1.51-14.97-1.83-5.46-12.84-.64-1.17-2.54-.09-.66,1.05-5.97,12.76-3.14.28Z"/>
</svg>